<?xml version="1.0" encoding="UTF-8"?> <!-- Generator: Adobe Illustrator 24.0.1, SVG Export Plug-In . SVG Version: 6.00 Build 0) --> <svg xmlns="http://www.w3.org/2000/svg" xmlns:xlink="http://www.w3.org/1999/xlink" id="Layer_1" x="0px" y="0px" viewBox="0 0 105.1 54.4" style="enable-background:new 0 0 105.1 54.4;" xml:space="preserve"> <style type="text/css"> .st0{fill:#707070;} </style> <path class="st0" d="M47.3,18.8c0,0.3,0,0.5,0,0.7c0,0.4-0.1,0.7-0.1,1.1c0,0.7-0.2,1.4-0.2,2.2c0,0.8,0,1.7,0,2.5 c0,0.4,0,0.8,0,1.2c0,0.4,0,0.9,0.1,1.3c0,0.2,0,0.3,0,0.5c0,0.5,0.1,1,0.3,1.5c0.1,0.3,0.3,0.5,0.5,0.7c0.2,0.2,0.5,0.4,0.8,0.5 c0.4,0.1,0.7,0.2,1.1,0.3c0.9,0.3,1.8,0.3,2.6-0.1c0.2-0.1,0.3-0.1,0.3-0.3c0-0.1,0.1-0.1,0.1-0.2c0.6-0.6,0.9-1.4,1-2.3 c0.1-0.6,0.1-1.1,0.1-1.7c0-1,0.1-1.9,0.2-2.9c0.1-0.8,0.2-1.6,0.1-2.4c0-0.2-0.1-0.4-0.2-0.5c-0.1-0.1-0.1-0.2-0.2-0.3 c-0.1-0.1-0.1-0.3,0-0.4c0.3,0.1,0,0.4,0.3,0.6c0.3-0.4,0.1-0.8,0.1-1.2c-0.3,0.1-0.3,0.1-0.3,0.5c-0.1-0.1-0.1-0.1-0.1-0.1 c0-0.1,0-0.3,0-0.4c0-0.1,0.1-0.1,0.2-0.1c0.2,0,0.2-0.1,0.3-0.2c-0.1,0-0.1-0.1-0.2-0.1c0,0,0,0,0,0c0.7,0,1.3,0,2,0 c0.9,0,1.8,0,2.8,0c0.1,0,0.3,0,0.4-0.1c0.6-0.1,1.1,0,1.7,0c0.4,0,0.7,0.1,1.1,0c0.2,0,0.4,0,0.5,0c0.2,0,0.4,0.1,0.6,0 c0.1,0.3,0.3,0.5,0.3,0.8c0,0.1,0.1,0.3,0.2,0.4c0.5,1.2,1.1,2.3,1.6,3.5c0.3,0.7,0.6,1.5,0.9,2.2c0.3,0.9,0.8,1.7,1.2,2.5 c0,0.1,0.1,0.1,0.1,0.2c0,0,0.1,0,0.1-0.1c0.2-0.3,0.4-0.5,0.5-0.8c0.5-0.9,0.9-1.9,1.3-2.8c0.4-1,0.9-2,1.3-3 c0.3-0.6,0.6-1.3,0.9-1.9c0.1-0.3,0.1-0.3-0.1-0.5c0.1-0.2,0.2-0.2,0.4-0.2c0.2,0,0.4,0,0.5,0c0.6,0.1,1.1,0,1.7,0 c0.5,0,1.1,0,1.6,0c0.7,0,1.3,0.1,2,0.1c0.2,0,0.4-0.1,0.7-0.1c0.4,0,0.9-0.1,1.3-0.1c0.9,0,1.9-0.1,2.8-0.1c0.7,0,1.4,0,2.1,0 c0.7,0,1.4,0,2.1,0.1c0.5,0.1,0.9,0.2,1.4,0.3c0.7,0.2,1.2,0.7,1.6,1.3c0.5,0.8,0.8,1.6,0.7,2.5c0,0.6-0.2,1.2-0.7,1.6 c-0.2,0.3-0.5,0.5-0.7,0.8c-0.2,0.2-0.2,0.3,0.1,0.5c0.1,0.1,0.2,0.3,0.4,0.4c0.4,0.3,0.6,0.8,0.8,1.3c0.3,0.9,0.4,1.8,0.2,2.7 c-0.2,1.1-0.8,1.9-1.8,2.4c-0.9,0.4-1.8,0.7-2.8,0.7c-1.1,0-2.1,0-3.2,0c-0.8,0-1.6,0-2.3-0.1c-1-0.1-1.9,0.1-2.9,0.2 c-0.7,0.1-1.3,0-2,0c-0.5,0-0.9-0.1-1.4-0.1c-0.4-0.1-0.9,0-1.3,0c-0.5,0.1-1-0.1-1.5-0.3C71,33.2,71,33,71,32.9c0-0.3,0-0.6,0-0.8 c0.1-1.4,0.2-2.7,0.3-4.1c0-0.6,0-1.1,0-1.7c0-0.1,0-0.2-0.1-0.3c-0.2,0-0.2,0.2-0.3,0.3c-0.2,0.3-0.3,0.5-0.5,0.8 c-0.4,0.9-1.1,1.7-1.5,2.7c-0.4,0.9-0.9,1.8-1.3,2.7c-0.1,0.2-0.2,0.4-0.5,0.4c-0.2,0-0.4,0-0.6,0c-0.2,0-0.4-0.2-0.4-0.4 c-0.2-0.8-0.4-1.6-0.7-2.4c-0.2-0.7-0.5-1.3-0.9-2c0-0.1-0.1-0.1-0.1-0.2c-0.1-0.5-0.4-0.8-0.5-1.2c-0.1-0.2-0.2-0.5-0.3-0.7 c0-0.1-0.1-0.2-0.1-0.3c-0.1-0.1-0.2-0.3-0.4-0.3c0,0.1,0,0.2,0,0.2c0,0.7,0,1.3,0,2c0,0.2,0,0.3,0,0.5c0,0.1,0.1,0.3,0.1,0.4 c0,0.1,0,0.1,0,0.2c0,1.1,0,2.3,0,3.4c0,0.2,0,0.5-0.1,0.7c0,0.3-0.1,0.3-0.3,0.3c-0.4,0-0.8,0-1.2,0c-0.9,0-1.8,0-2.7,0 c0,0-0.1,0-0.1,0c0-0.1,0.1-0.2,0.1-0.3c0.1-0.3,0-0.7,0-1c0-0.7,0-1.4,0-2c0-0.5,0-1,0.1-1.6c0.1-1-0.1-1.9-0.1-2.9 c0-1.2-0.1-2.3,0-3.5c0-0.3,0-0.5,0-0.8c0-0.2-0.1-0.3-0.1-0.5c-0.1-0.3-0.2-0.3-0.5-0.2c-0.1,0-0.3,0.1-0.4,0.2 c-0.2,0.1-0.3,0.3-0.3,0.5c-0.1,0.7-0.2,1.5-0.2,2.2c0,0.7,0,1.5,0,2.2c0,0.4-0.1,0.8-0.2,1.2c0,0.3-0.1,0.6-0.1,1 c0,0.4,0,0.8-0.1,1.2c0,0.4-0.1,0.8-0.4,1.2c-0.1,0.2-0.2,0.5-0.3,0.7c-0.1,0.2-0.2,0.4-0.4,0.5c-0.1,0.1-0.2,0.2-0.3,0.3 c-0.2,0.2-0.3,0.4-0.5,0.6c-0.2,0.2-0.4,0.3-0.6,0.4c-0.2,0.1-0.3,0.1-0.4,0.2c-0.5,0.3-1,0.5-1.6,0.5c-0.5,0.1-1.1,0.2-1.7,0.2 c-0.3,0-0.6,0-0.9,0c-0.3,0-0.6-0.1-0.9-0.1c-0.7,0-1.4-0.1-2.1-0.4c-0.1,0-0.2-0.1-0.3-0.2c-0.2-0.2-0.5-0.3-0.8-0.4 c-0.8-0.3-1.3-0.8-1.6-1.5c-0.3-0.6-0.6-1.2-0.9-1.8c0-0.1-0.1-0.2-0.1-0.3c0-0.5-0.1-0.9-0.1-1.4c0-0.3,0-0.5,0-0.8 c0-0.8-0.1-1.5-0.2-2.2c-0.1-0.7-0.1-1.3,0-2c0.1-0.7,0.1-1.5-0.1-2.2c-0.1-0.3-0.1-0.5-0.1-0.8c0-0.3,0.2-0.5,0.5-0.5 c0.8,0,1.6,0,2.4,0c0.5,0,0.9,0,1.4,0.1C47.2,18.8,47.2,18.8,47.3,18.8 M77.5,23.8c0-0.9,0-1.7-0.2-2.4c-0.1-0.4-0.3-0.5-0.6-0.6 c0,0-0.1,0-0.2,0c-0.2,0.2-0.4,0.4-0.6,0.7c-0.2,0.2-0.2,0.4-0.2,0.6c0,0.2,0,0.5-0.1,0.7c-0.2,0.7-0.3,1.4-0.3,2.2 c0,0.8,0,1.6-0.1,2.3c0,0.6-0.1,1.2-0.1,1.7c0,0.7-0.1,1.5-0.1,2.2c0,0.1,0,0.2,0.1,0.3c0.2,0.3,0.5,0.4,0.9,0.3 c0.1-0.1,0.3-0.1,0.4-0.2c0.4-0.3,0.8-0.7,0.7-1.3c0-0.4,0-0.7,0.1-1.1c0.1-0.7,0.2-1.4,0.1-2.2c-0.1-0.4,0-0.8,0-1.2 C77.4,25.2,77.5,24.4,77.5,23.8 M81.8,26.8c0,0.1,0,0.2,0,0.2c0,0.7,0,1.4,0,2.1c0,0.7,0,1.4-0.2,2.2c0,0.2,0,0.3,0.3,0.3 c0,0,0.1,0,0.1,0c0.7,0,1.4,0,2-0.2c0.5-0.1,1.1-0.3,1.5-0.6c0.3-0.2,0.6-0.5,0.7-0.9c0-0.7,0-1.3-0.1-2c0-0.3-0.2-0.4-0.4-0.6 c-0.4-0.2-0.7-0.4-1.1-0.6c-0.2-0.1-0.5-0.2-0.7-0.1c-0.5,0-0.9,0.1-1.4,0.1C82.2,26.8,82,26.8,81.8,26.8 M81.8,24.3 c0,0,0.1,0,0.1,0c0.5,0,1,0.1,1.6,0.1c0.4,0,0.7,0,1.1-0.1c0.7-0.2,1.2-0.7,1.6-1.2c0.1-0.2,0.1-0.4,0.1-0.5 c-0.1-0.2-0.2-0.4-0.2-0.7c0-0.2-0.2-0.3-0.3-0.5c-0.1-0.1-0.2-0.1-0.4-0.2c-0.6-0.2-1.1-0.2-1.7-0.2c-0.5,0-0.9,0-1.4,0 c-0.3,0-0.3,0-0.4,0.3c0,0.1,0,0.1,0,0.2C81.8,22.4,81.8,23.3,81.8,24.3"></path> <path class="st0" d="M39.3,45.8c0.2-0.1,0.5-0.2,0.7-0.4c0.5-0.3,1-0.7,1.5-1.1c1-0.8,1.6-1.8,2.2-2.9c0.2-0.3,0.5-0.3,0.7-0.1 c0.1,0.1,0.2,0.3,0.2,0.5c0,0.2,0,0.4,0.1,0.7c0,0.3,0,0.3,0.3,0.3c0,0,0.1,0,0.1,0c0.2,0.1,0.2,0.2,0.2,0.3 c-0.1,0.3-0.2,0.6-0.5,0.9c-0.3,0.2-0.6,0.6-0.7,0.9C44,45.1,44,45.2,44,45.3c0,0.3,0.1,0.4,0.3,0.3c0.3-0.1,0.7-0.3,1-0.4 c0.4-0.2,0.8-0.5,1.1-0.9c0.8-1,1.7-1.8,2.8-2.6c0.1-0.1,0.2-0.1,0.3-0.1c0.1-0.1,0.3-0.1,0.4-0.2c0.2-0.1,0.3-0.2,0.5-0.1 c0.3,0.1,0.7,0.1,1,0.2c0.9,0.3,1.1,1.2,0.9,1.9c0,0.1-0.1,0.3-0.1,0.4c0,0.3,0.2,0.4,0.4,0.3c0.3-0.1,0.6-0.3,0.8-0.5 c0.5-0.5,1.1-1,1.6-1.5c0,0,0.1-0.1,0.1-0.1c0.2-0.5,0.6-0.6,1.1-0.6c0.1,0,0.1,0,0.2,0c0.3,0,0.3,0,0.5,0.2 c0.1,0.2,0.1,0.4-0.1,0.6c-0.9,0.9-1.6,2-2.3,3.1c0,0,0,0.1-0.1,0.1c0.3,0.2,0.6,0.3,0.9,0.1c0.4-0.2,0.7-0.5,1.1-0.8 c0.6-0.5,1.2-1,1.7-1.6c0.4-0.3,0.7-0.7,1.1-1c0.1-0.1,0.3-0.2,0.5-0.2c0.3,0,0.6-0.1,0.9-0.1c0.1,0.2,0.1,0.4-0.1,0.6 c-0.7,0.7-1.4,1.5-2.1,2.4c-0.2,0.2-0.3,0.5-0.5,0.8c0,0,0,0.1,0,0.2c0.1,0,0.2,0,0.3,0c0.5-0.1,0.9-0.4,1.3-0.7 c0.1-0.1,0.2-0.2,0.3-0.3c0.1-0.1,0.2-0.2,0.2-0.3c1.2-1.2,2.3-2.4,3.4-3.6c0.3-0.3,0.6-0.7,0.9-1.1c0.1-0.2,0.2-0.4,0.3-0.5 c0.4-0.4,0.8-0.7,1.2-1.1c0,0,0.1,0,0.1-0.1c0.2-0.1,0.3-0.1,0.3,0.1c0.1,0.2,0,0.5-0.1,0.7c-0.2,0.5-0.5,0.9-0.8,1.4 c-0.4,0.5-0.8,1-1.3,1.6c-0.1,0.1-0.2,0.2-0.2,0.3C63.9,42,64,42,64.1,42c0.4-0.2,0.8-0.4,1.2-0.5c0.2,0,0.4,0,0.5,0.1 c0.3,0.2,0.5,0.5,0.6,0.9c0.1,0.2,0,0.4-0.1,0.6c-0.5,0.6-0.9,1.1-1.4,1.7c-0.1,0.2-0.3,0.3-0.4,0.5c0,0.1-0.1,0.2,0,0.2 c0.1,0.1,0.2,0,0.2,0c0.5-0.3,1-0.7,1.4-1c0.3-0.2,0.6-0.4,0.9-0.7c0,0,0.1-0.1,0.1-0.1c0.1,0,0.2,0,0.3,0c0,0.1,0,0.2,0,0.2 c-0.8,1.1-1.8,2-3.1,2.5c-0.4,0.2-0.7,0.1-1-0.1c-0.4-0.3-0.6-0.6-0.6-1.1c0-0.2,0.1-0.5,0.3-0.6c0.3-0.4,0.7-0.7,1-1.1 c0.2-0.2,0.4-0.3,0.6-0.5c0.2-0.2,0.4-0.5,0.4-0.8c-0.1-0.2-0.3-0.2-0.5-0.1c-0.7,0.3-1.3,0.8-1.8,1.3c-1,1-1.7,2.1-2.3,3.4 c-0.2,0.5-0.5,0.9-0.8,1.4c-0.9,1.3-1.9,2.6-2.8,3.9c-0.2,0.3-0.5,0.6-0.8,0.9c-0.1,0.1-0.3,0.2-0.4,0.1c-0.1-0.1-0.3-0.1-0.4-0.2 c-0.2-0.2-0.3-0.2-0.1-0.5c0.5-0.7,1-1.4,1.5-2.2c1.4-1.9,2.8-3.9,4.2-5.8c0,0,0-0.1,0.1-0.2c-0.3,0-0.4,0.2-0.5,0.3 c-0.3,0.6-0.8,1-1.3,1.2c-0.4,0.2-0.7,0.3-1.1,0.4c-0.6,0.2-1.1,0-1.6-0.4c-0.1-0.1-0.2-0.2-0.3-0.3c-0.1,0.1-0.2,0.2-0.3,0.2 c-0.4,0.3-0.8,0.5-1.3,0.8c-0.1,0-0.2,0.1-0.3,0.1c-0.3,0-0.6,0-0.9,0c-0.3,0-0.6-0.3-0.7-0.7c0-0.2,0-0.3,0-0.5c0-0.2,0-0.3,0-0.5 c-0.1,0-0.1,0-0.2,0c-0.3,0-0.5-0.1-0.6-0.4c-0.1-0.1-0.1-0.2-0.1-0.4c0-0.1,0-0.2-0.1-0.3c-0.1,0.1-0.2,0.1-0.2,0.1 c-0.9,0.7-1.8,1.4-2.8,2.1c-0.3,0.2-0.6,0.3-0.9,0.5c-0.1,0.1-0.2,0.1-0.3-0.1c-0.1,0.1-0.3,0.1-0.4,0.1c-0.4-0.1-0.7-0.3-1-0.6 c-0.1-0.1-0.1-0.2-0.2-0.3c-0.1,0.1-0.3,0.1-0.4,0.2c-0.6,0.3-1.2,0.6-1.8,0.7c-0.1,0-0.2,0-0.3,0.1c-0.5,0-0.8-0.3-0.9-0.7 c0-0.3,0-0.6,0.2-0.8c0.3-0.5,0.6-0.8,1-1.2c0.2-0.1,0.3-0.3,0.5-0.4c-0.1-0.2-0.2-0.4-0.4-0.6c-0.1,0.1-0.2,0.1-0.2,0.2 c-0.4,0.4-0.8,0.9-1.2,1.3c-0.6,0.6-1.3,1.2-2.1,1.6c-0.4,0.2-0.7,0.5-1,0.7c-0.4,0.2-0.7,0.5-0.9,0.9c-0.3,0.5-0.6,0.9-0.9,1.4 c-0.7,0.9-1.4,1.9-2,2.8c-0.5,0.6-0.9,1.2-1.6,1.7c-0.4,0.3-0.9,0.6-1.3,0.8c-0.3,0.2-0.6,0.1-0.8,0c-0.2,0-0.3-0.3-0.4-0.5 c0-0.4,0-0.8,0.3-1.2c0.8-1.3,1.9-2.4,3-3.4c0.7-0.7,1.5-1.2,2.4-1.8c0.2-0.1,0.3-0.2,0.3-0.4c0.2-0.4,0.3-0.9,0.5-1.4 c-0.1,0-0.2,0-0.2,0c-0.4,0.2-0.9,0.4-1.3,0.7c-0.2,0.1-0.3,0.1-0.5,0c-0.2-0.1-0.4-0.1-0.6-0.2c-0.6-0.3-0.9-0.8-0.9-1.4 c0-0.9,0.3-1.6,0.8-2.3c0.1-0.1,0.1-0.2,0.2-0.3c0,0,0,0,0,0c-0.1-0.1-0.2,0-0.3,0c-0.5,0.2-1,0.3-1.4,0.5c-0.1-0.3,0-0.3,0.2-0.4 c0.8-0.3,1.6-0.6,2.4-1c0.4-0.3,0.8-0.5,1.2-0.9c0.1-0.1,0.2-0.2,0.2-0.3c0.1-0.4,0.5-0.7,0.8-1c0.9-0.9,1.8-1.8,2.7-2.7 c1.1-1,2.1-2,3.3-2.8c0.1-0.1,0.3-0.2,0.4-0.3c0.4-0.3,0.8-0.3,1.2-0.3c0.3,0,0.5,0.3,0.5,0.6c0,0.4-0.1,0.7-0.2,1.1 c-0.3,0.7-0.7,1.4-1.3,2c-0.5,0.6-1.1,1.3-1.7,1.9c-0.2,0.2-0.4,0.3-0.6,0.5c-1.3,0.9-2.7,1.6-4.2,2.2c0,0,0,0,0,0 c-0.5,0.1-0.8,0.4-1,0.8c-0.4,0.8-0.8,1.5-1,2.3c-0.1,0.2-0.1,0.4-0.2,0.6c-0.1,0.3,0,0.4,0.3,0.5c0.3,0.1,0.6,0,0.9-0.2 c1.3-1.1,2.3-2.4,3.1-3.9c0.3-0.5,0.3-0.5,0.9-0.5c0.2,0,0.3,0.1,0.3,0.3c0,0.1,0,0.3-0.1,0.4c-0.5,0.8-1,1.6-1.4,2.5 c-0.2,0.4-0.5,0.8-0.7,1.1C39.2,45.4,39.2,45.5,39.3,45.8 M38.5,40.5c0.1,0,0.2-0.1,0.3-0.1c1.5-0.6,2.9-1.4,4.1-2.5 c1-0.9,1.8-1.9,2.4-3c0.2-0.3,0.1-0.4-0.3-0.5c-0.2,0-0.3,0-0.5,0c-0.5,0.1-0.9,0.3-1.3,0.6c-0.7,0.5-1.4,1.1-1.9,1.8 c-0.7,0.8-1.4,1.7-2.1,2.5c-0.1,0.1-0.2,0.2-0.4,0.3C38.6,39.8,38.5,40.1,38.5,40.5 M50.7,42c-0.1,0-0.2,0.1-0.3,0.1 c-0.4,0.3-0.8,0.6-1.2,0.9c-0.7,0.6-1.2,1.4-1.4,2.4c0,0.2,0,0.3,0.2,0.4c0.1-0.1,0.2-0.1,0.3-0.2c0.7-0.4,1.3-0.9,1.8-1.5 c0.5-0.6,0.6-1.3,0.6-2C50.7,42.1,50.7,42.1,50.7,42 M35.9,49L35.9,49c-0.1,0-0.2,0.1-0.3,0.1c-0.6,0.5-1.2,1-1.7,1.5 c-0.6,0.6-1.1,1.3-1.5,2c-0.1,0.2-0.2,0.4-0.1,0.6c0.3,0.1,0.5,0.1,0.7-0.2c0.3-0.2,0.6-0.5,0.8-0.8c0.8-1,1.4-2.1,2-3.2 C35.8,49.1,35.8,49.1,35.9,49"></path> <path class="st0" d="M24.4,33.7c0.2,0,0.3-0.1,0.5-0.1c0,0,0,0,0,0c-0.1,0-0.1,0-0.2,0c-0.5,0-1.1-0.1-1.6-0.1 c-1.2,0-2.2-0.4-3.2-0.9c-1.2-0.6-2-1.6-2.6-2.8c-0.2-0.4-0.3-0.8-0.4-1.2c-0.1-0.4-0.1-0.8-0.1-1.2c0-0.7,0-1.5-0.1-2.2 c0-0.3,0-0.6,0.1-0.8c0-0.2,0-0.3,0-0.5c0,0,0-0.1,0-0.1c0.1-0.3,0.1-0.5,0-0.8c0-0.1,0-0.1,0-0.2c0.1-0.4,0.2-0.8,0.4-1.2 c0-0.1,0.1-0.2,0.2-0.3c0.1-0.1,0.2-0.3,0.3-0.5c0.1-0.3,0.3-0.6,0.5-0.8c0.4-0.4,0.8-0.7,1.3-1c0.4-0.2,0.7-0.4,1.1-0.6 c0.2-0.1,0.5-0.1,0.7-0.2c0.5-0.1,1-0.1,1.5-0.2c1-0.1,2,0.1,2.9,0.4c0.5,0.2,1,0.3,1.4,0.5c0.2,0.1,0.4,0.2,0.5,0.4 c0.3,0.3,0.6,0.6,1,0.7c0.3,0.1,0.4,0.4,0.5,0.6c0.1,0.4,0.3,0.7,0.5,1c0.2,0.3,0.3,0.6,0.3,0.9c0,0.3,0.1,0.5,0.1,0.8 c0.1,0.4,0.1,0.8,0.1,1.2c0,0.3,0,0.5,0,0.8c0,0.3,0,0.6,0.1,0.9c0,0.5,0,1,0,1.5c0,0.2,0,0.4-0.1,0.6c0,0,0,0.1,0,0.1 c0.2,0.2,0,0.4-0.1,0.6c-0.3,0.7-0.5,1.3-0.8,2c0,0.1-0.1,0.2-0.2,0.2c-0.5,0.4-1,0.8-1.6,1.2c-0.6,0.4-1.2,0.7-2,0.9 C25.2,33.8,24.8,33.8,24.4,33.7 M26,26.1c-0.1-0.6-0.1-1.3-0.2-1.9c0-0.4-0.1-0.8,0-1.2c0-0.1,0-0.3,0-0.4c-0.3-1.4-1.7-2.3-3.2-2 c-0.1,0-0.3,0.1-0.4,0.2c-0.3,0.2-0.5,0.5-0.7,0.7c-0.3,0.3-0.4,0.7-0.4,1.1c0,0.1,0,0.2,0,0.2c-0.3,0.6-0.4,1.2-0.4,1.8 c0,0.5,0.1,1-0.1,1.5c0,0,0,0.1,0,0.1c0.1,0.2,0,0.3,0,0.5c0,0.1,0,0.2,0,0.3c0.1,0.2,0.1,0.4,0.1,0.6c0.1,0.4,0.1,0.7,0.2,1.1 c0,0.1,0,0.1,0,0.2c0,0.3,0.1,0.5,0.2,0.7c0.1,0.1,0.1,0.2,0.2,0.4c0.2,0.6,0.7,0.9,1.3,1.1c0.1,0,0.3,0.1,0.4,0.1 c0.4,0.1,0.7,0.2,1.1,0c0.5-0.2,0.9-0.5,1.2-0.9c0,0,0.1-0.1,0.1-0.2c0.1-0.3,0.2-0.6,0.3-0.9c0.1-0.2,0.1-0.4,0-0.7 c0-0.1,0-0.2,0-0.2C25.8,27.5,25.9,26.8,26,26.1"></path> <path class="st0" d="M98.1,19.3c1.1,0,2.1,0.1,3,0.3c0.4,0.1,0.8,0.3,1.1,0.5c0.5,0.2,0.8,0.6,1.1,1.1c0.2,0.4,0.4,0.7,0.8,1 c0.1,0,0.1,0.1,0.1,0.2c0,0.3,0.1,0.5,0.2,0.7c0.1,0.2,0.2,0.4,0.2,0.7c0,0.1,0,0.2,0,0.3c0.2,0.9,0.3,1.9,0.4,2.8 c0,0.1,0,0.3,0,0.4c0,0,0,0.1,0,0.1c0,0.1,0.1,0.2,0.1,0.3c0,0.1-0.1,0.2-0.1,0.3c-0.1,0.3-0.1,0.6-0.2,0.9c0,0.2-0.1,0.4-0.2,0.5 c-0.4,0.8-0.8,1.6-1.4,2.3c-0.4,0.4-0.8,0.7-1.3,1c-0.5,0.3-1.1,0.6-1.6,0.9c-0.5,0.3-1.1,0.5-1.7,0.3c-0.4-0.1-0.9-0.1-1.3-0.1 c-0.5,0-0.9-0.1-1.3-0.3c-0.7-0.3-1.3-0.6-2-0.9c-1.1-0.6-1.8-1.5-2.3-2.7c-0.3-0.8-0.4-1.5-0.3-2.3c0-0.1,0-0.2,0-0.3 c-0.1-0.6-0.1-1.2-0.1-1.7c0-0.6,0.1-1.1,0.2-1.7c0-0.1,0-0.1,0.1-0.2c0.2-0.4,0.4-0.9,0.6-1.3c0.2-0.3,0.3-0.6,0.5-0.8 c0.1-0.1,0.2-0.2,0.3-0.3c0.1-0.1,0.1-0.1,0.2-0.2c0.1-0.2,0.3-0.3,0.5-0.5c0.1,0,0.1-0.1,0.2-0.1c0.3-0.4,0.8-0.5,1.3-0.7 C96.1,19.4,97.1,19.3,98.1,19.3 M100.8,25.8c-0.1-1.1-0.1-2-0.6-2.9c0,0,0-0.1,0-0.1c-0.2-0.7-0.6-1.2-1.2-1.6 c-0.1-0.1-0.2-0.1-0.3-0.1c-0.2,0-0.5,0-0.7,0.1c-0.5,0.1-0.8,0.3-1.2,0.7c-0.5,0.5-1,1-1.1,1.7c-0.1,0.4-0.2,0.8-0.3,1.1 c0,0.2,0,0.5-0.1,0.7c0,0.1,0,0.2,0,0.3c0,0.3,0.1,0.5,0,0.8c0,0,0,0.1,0,0.1c0.1,0.6,0.2,1.1,0.2,1.7c0,0.3,0.1,0.6,0.2,0.9 c0.1,0.7,0.4,1.2,1.1,1.5c0.1,0,0.1,0.1,0.1,0.1c0,0.1,0.1,0.2,0.2,0.2c0.2,0.1,0.5,0.2,0.7,0.3c0.1,0,0.2,0,0.3,0 c0.1,0,0.2-0.1,0.3-0.1c0.4,0,0.8-0.2,1-0.5c0.3-0.5,0.6-1,0.7-1.6c0.2-0.8,0.3-1.6,0.4-2.3C100.7,26.4,100.8,26.1,100.8,25.8"></path> <path class="st0" d="M14.7,24.2c-0.1,0-0.1,0-0.1,0c-0.9,0-1.8-0.1-2.7-0.1c-0.2,0-0.4,0-0.6,0c-0.2,0-0.4,0-0.6,0 c0-0.1,0-0.2,0-0.3c0-1.1-0.3-2-0.8-2.9C9.6,20.5,9.3,20.2,9,20c-0.4-0.2-0.8-0.3-1.3-0.1c-0.5,0.2-1,0.4-1.5,0.8 c-0.6,0.4-1,1-1.2,1.8c-0.2,0.6-0.2,1.3-0.2,1.9c0,0.5,0,0.9,0,1.4c0,0.9,0.1,1.8,0.3,2.7c0.2,0.8,0.4,1.6,0.9,2.2 c0.3,0.4,0.7,0.8,1.2,1c0.6,0.2,1.2,0.1,1.7-0.2c1-0.4,1.5-1.2,1.7-2.2c0.1-0.3,0.1-0.7,0.1-1c0-0.3,0.1-0.3,0.3-0.3 c0.6,0,1.3,0,1.9,0c0.5,0,1.1,0,1.6-0.1c0.2,0,0.3-0.1,0.5,0c0,0.1-0.1,0.2-0.1,0.4c-0.2,0.6-0.3,1.2-0.5,1.7 c-0.4,1.3-1.2,2.2-2.5,2.7c-0.8,0.3-1.5,0.6-2.4,0.8c-0.7,0.2-1.5,0.2-2.2,0.1c-1-0.1-2-0.3-2.9-0.6c-1.2-0.4-2.1-1.1-2.7-2.1 c-0.3-0.4-0.5-0.9-0.7-1.3c-0.3-0.6-0.5-1.1-0.7-1.7c-0.3-0.8-0.4-1.6-0.3-2.4c0.2-0.8,0.3-1.7,0.5-2.5c0.1-0.4,0.3-0.9,0.4-1.3 c0.2-0.5,0.5-0.8,0.8-1.1c0.9-0.8,1.9-1.4,3-1.9c0.5-0.2,1-0.4,1.6-0.4c0.6,0,1.2-0.1,1.8-0.1c0.3,0,0.7,0,1,0.1 c0.6,0.1,1.1,0.2,1.7,0.3c0.8,0.2,1.4,0.6,1.9,1.2c0.6,0.6,0.9,1.3,1.2,2.1c0.2,0.7,0.4,1.4,0.6,2C14.6,23.9,14.6,24,14.7,24.2"></path> <path class="st0" d="M48.4,12.9c-0.1,0.1-0.2,0.1-0.2,0.2c-0.7,0.5-1.4,1-2.1,1.5c-0.2,0.2-0.5,0.3-0.7,0.4c-0.1,0-0.2,0-0.3,0 c-0.1,0-0.2-0.2-0.1-0.3c0.1-0.1,0.3-0.2,0.4-0.3c1.2-0.8,2.3-1.6,3.3-2.6c0.4-0.4,0.8-0.8,1.1-1.3c1.2-1.9,2.6-3.7,4-5.4 C53.9,5,54,4.8,54.2,4.7c0,0,0.1-0.1,0.2-0.2c-0.4-0.1-0.8-0.2-1.2-0.3C52.6,4.1,52,4,51.5,3.9c0,0-0.1,0-0.1,0 c-0.4-0.3-0.9-0.3-1.3-0.4c-0.6-0.1-1.3,0-1.9-0.1c-0.1,0-0.2,0-0.3,0c-0.5,0.2-1,0.5-1.4,1c-0.1,0.1-0.2,0.3-0.3,0.4 c-0.3,0.7-0.8,1.3-1.3,1.8c-0.6,0.7-1.3,1.3-2.1,1.6c-0.7,0.4-1.5,0.5-2.4,0.5c-0.1,0-0.3,0-0.4-0.1c-0.5-0.5-0.8-1.1-0.6-1.8 c0.1-0.4,0.2-0.8,0.4-1.1c0.3-0.5,0.7-1,1.2-1.3c0.4-0.3,0.9-0.5,1.4-0.5c0.3,0,0.7-0.1,1-0.2c0.5-0.1,1-0.3,1.6-0.4 c0.1,0,0.2-0.1,0.3-0.1c0.2-0.1,0.3-0.3,0.1-0.5c-0.1-0.1-0.3-0.3-0.5-0.3c-0.1,0-0.1,0-0.2,0c-0.7,0-1.3,0-2,0 c-0.6,0-1.2,0.3-1.7,0.5c-0.2,0.1-0.4,0.1-0.5,0.2c0,0-0.1,0-0.2,0c0-0.2,0.1-0.3,0.2-0.4c0.3-0.2,0.6-0.3,1-0.4 c0.7-0.2,1.4-0.3,2.2-0.4c0.7-0.1,1.4,0,2.1,0.2c0.3,0.1,0.6,0.3,0.7,0.7c0,0.1,0.1,0.2,0.2,0.2C46.9,3,47.1,3,47.3,3 c1.4-0.2,2.8-0.1,4.2-0.1c0.6,0,1.2,0.2,1.8,0.3c0.6,0.1,1.2,0.4,1.8,0.5c0.1,0,0.3,0,0.3,0C55.7,3.9,55.8,4,56,4.1 c0.8,0.3,1.5,0.6,2.3,0.9c0.1,0.1,0.3,0.1,0.4,0.2c0.6,0.5,1.3,0.8,2.1,1.1c0.1,0,0.2,0,0.2,0.1c1,0,2,0.1,3,0.1 c0.6,0,1.1-0.1,1.7-0.1c0.3-0.1,0.6-0.2,0.9-0.4c0.6-0.4,1.1-0.8,1.7-1.1c0.1,0,0.1-0.1,0.2-0.1c0.3-0.1,0.5-0.4,0.6-0.6 c0.1-0.2,0.2-0.4,0.3-0.6c0.2-0.5,0.1-0.9-0.1-1.3c-0.1-0.2-0.3-0.4-0.4-0.6c-0.2-0.4-0.5-0.6-1-0.6c-0.3,0-0.6,0-0.9,0 c-1,0.1-2,0.3-3,0.7c-0.3,0.1-0.6,0.3-0.9,0.5c-0.5,0.3-1,0.7-1.5,1c-0.1,0.1-0.2,0.1-0.3,0.1c-0.1-0.2,0-0.3,0.1-0.4 c0.6-0.5,1.3-1,2.1-1.4c1-0.5,2.1-0.9,3.2-1.1C67,0,67.5,0,67.9,0c0.8,0.1,1.6,0.4,2.1,1c0.2,0.2,0.3,0.5,0.4,0.8 c0.1,0.7,0.1,1.3-0.2,2c-0.2,0.5-0.6,0.8-1,1.2c-0.7,0.6-1.6,1-2.5,1.3c-0.5,0.2-0.9,0.3-1.4,0.5c-0.3,0.1-0.6,0.1-1,0.1 c-1.2,0-2.4,0.1-3.6,0c-0.4,0-0.9-0.2-1.3-0.3c-0.6-0.2-1.2-0.5-1.7-0.9c-0.2-0.1-0.4-0.2-0.6-0.3c-0.5-0.2-0.9-0.3-1.4-0.5 c-0.1,0-0.1,0-0.2,0c0,0-0.1,0.1-0.1,0.1c-0.7,1.3-1.6,2.5-2.6,3.7c-0.5,0.6-1.1,1.2-1.7,1.9c-0.1,0.1-0.1,0.2-0.2,0.3 c0,0.2,0.1,0.3,0.3,0.2c0.5-0.1,0.9-0.2,1.4-0.3c0.3-0.1,0.3-0.1,0.4,0.1c0.2,0.2,0.2,0.4,0.3,0.7c0.1,0.7-0.3,1.3-0.6,2 c-0.2,0.4-0.4,0.8-0.6,1.1c0,0.1-0.1,0.1-0.1,0.2c1.2,0,1.9-0.7,2.6-1.4c0.1,0.1,0.1,0.2,0.2,0.2c0.2-0.3,0.3-0.6,0.5-0.9 c0.5-0.8,1.2-1.5,2-1.9c0.3-0.2,0.6-0.2,1-0.3c0.3,0,0.5,0.1,0.6,0.3c0.2,0.3,0.1,0.7,0.1,1c0,0.1-0.1,0.2-0.2,0.3 c-0.5,0.6-1.1,1.1-1.7,1.5c-0.3,0.2-0.6,0.4-0.9,0.6c-0.2,0.1-0.3,0.3-0.3,0.5c0,0.2,0,0.3,0.1,0.4c0,0,0,0,0,0 c0.4,0.4,0.5,0.4,0.9,0.1c0.5-0.4,1-0.7,1.5-1.1c0.3-0.2,0.7-0.5,1-0.7c0.1-0.1,0.2-0.1,0.3-0.2c0.1,0.3,0.1,0.4,0,0.5 c-0.7,0.6-1.4,1.2-2.2,1.6c-0.3,0.2-0.6,0.4-1,0.4c-0.5,0.1-1.1,0.1-1.6,0.2c-0.2,0-0.4-0.1-0.5-0.2c0,0,0-0.1-0.1-0.1 c-0.4-0.5-0.4-0.5-0.1-1.1c0-0.1,0-0.1,0.1-0.2c-0.1,0.1-0.2,0.1-0.2,0.2c-0.5,0.3-0.9,0.7-1.4,1c-0.5,0.3-1,0.4-1.6,0.4 c-0.5,0-0.9-0.4-0.9-0.9c0-0.3,0.1-0.5,0.2-0.8c0.3-0.6,0.7-1.2,1-1.7c0.1-0.2,0.2-0.4,0.3-0.5c0.1-0.2,0-0.3-0.1-0.5 c0,0-0.1-0.1-0.2-0.1c-0.1,0-0.2,0.1-0.2,0.1c-1.2,0.9-2.1,1.9-2.8,3.2c-0.2,0.4-0.4,0.7-0.7,1c-0.1,0.1-0.2,0.2-0.4,0.2 c-0.2,0-0.5,0-0.7,0c-0.2,0-0.3-0.1-0.3-0.3c0-0.3,0-0.5,0.2-0.7c0.5-0.7,1-1.5,1.6-2.2C48.4,13.1,48.5,13,48.4,12.9 C48.5,12.9,48.4,12.9,48.4,12.9 M41.3,8.5c0.2,0,0.4,0,0.5-0.1c0.6-0.3,1.1-0.6,1.6-1c0.4-0.3,0.7-0.7,0.8-1.2 c0-0.1,0.1-0.1,0.1-0.2c0.3-0.4,0.6-0.8,0.8-1.2c0.1-0.2,0.2-0.4,0.3-0.5c0.1-0.2,0-0.3-0.2-0.3c-0.1,0-0.3,0-0.4,0 c-0.5,0.1-1,0.2-1.5,0.3c-0.6,0.2-1.1,0.3-1.6,0.6c-0.8,0.5-1.3,1.3-1.8,2.1c-0.1,0.1-0.1,0.2,0,0.3c0.1,0.2,0.2,0.4,0.3,0.6 C40.5,8.3,40.8,8.5,41.3,8.5 M58.5,11.7c-0.1,0-0.1,0-0.2-0.1c-0.2-0.2-0.4-0.1-0.6,0c-0.8,0.3-1.1,0.9-1.2,1.7c0,0.2,0,0.3,0,0.5 c0.6-0.2,1.1-0.5,1.6-0.9C58.4,12.6,58.5,12.2,58.5,11.7 M54.8,5.4c-0.2,0.1-0.4,0.2-0.6,0.3c-0.8,0.5-1.4,1.3-1.8,2.2 c-0.1,0.2-0.1,0.4-0.4,0.4c0,0-0.1,0.1-0.1,0.1c0,0.2-0.1,0.4-0.1,0.7c0.2,0.1,0.2,0,0.3-0.1c0.1-0.2,0.3-0.4,0.5-0.6 c0.6-0.7,1.3-1.5,1.9-2.2C54.7,6,54.8,5.8,54.8,5.4"></path> <path class="st0" d="M31.8,33.1c0.3-0.3,0.3-0.3,0.3-0.7c0-0.2-0.1-0.5-0.1-0.7c0-0.2,0-0.4,0-0.5c0-0.2,0-0.4,0-0.6 c0-0.2-0.1-0.4-0.1-0.7c0-0.2,0-0.4,0-0.5c0.1-0.6,0.1-1.1,0.1-1.7c0-0.7,0-1.3,0-2c0-0.9,0.1-1.8,0.1-2.7c0-0.6,0-1.1-0.1-1.7 c-0.1-0.3,0-0.5,0-0.8c0-0.4,0-0.8,0-1.1c0-0.4,0.1-0.5,0.4-0.6c0.3-0.1,0.6-0.1,0.9-0.1c0.6,0,1.1,0,1.7,0c0.3,0,0.7,0,1,0 c0.3,0,0.4,0.1,0.4,0.4c0,0.2-0.1,0.3-0.1,0.5c0,0.1,0,0.2,0,0.3c0,0.2,0,0.4,0,0.7c0,0.3,0,0.5,0.1,0.8c0,0.1,0,0.2,0,0.3 c0,0.6,0,1.2,0,1.8c0,0.8,0,1.6,0,2.3c0,0.5,0,0.9,0,1.4c-0.1,0.8-0.1,1.6,0,2.5c0.1,0.4,0.1,0.9,0.2,1.3c0,0.3,0.1,0.3,0.4,0.4 c0.2,0,0.4,0,0.6,0c0.4,0,0.9,0,1.3-0.1c0.2,0,0.3,0,0.5,0c0.3,0,0.6-0.2,0.7-0.4c0.2-0.3,0.5-0.4,0.8-0.4c0.4,0,0.8,0.1,1.2,0.1 c0,0.1,0,0.1,0,0.1c0,0.8,0.1,1.7,0.1,2.5c0,0.3-0.1,0.4-0.5,0.4c-0.3,0-0.6-0.1-0.9-0.1c-0.6,0-1.3,0.1-1.9,0.1c-0.4,0-0.8,0-1.1,0 c-1.4,0-2.9,0-4.3,0c-0.5,0-0.9,0-1.4,0C32.1,33.3,31.9,33.3,31.8,33.1"></path> <path class="st0" d="M41.8,13.1c0.4,0.1,0.7-0.1,1-0.3c0.4-0.3,0.8-0.7,1.1-1.1c0.4-0.5,0.8-1,1.1-1.6c0.4-0.7,0.9-1.3,1.5-2 c0.4-0.5,0.9-1,1.3-1.6c0.4-0.5,1-0.9,1.5-1.4c0.5-0.4,1-0.7,1.4-1.1c0.3-0.2,0.5-0.1,0.8,0c0.1,0,0.2,0.2,0.1,0.3 c0,0.1-0.1,0.1-0.2,0.2c-1,0.8-1.9,1.6-2.7,2.6c-0.4,0.5-0.7,1-1,1.5c-0.4,0.6-0.7,1.2-1.1,1.8c-0.4,0.7-0.8,1.4-1.2,2 c-0.5,0.8-1.2,1.6-1.9,2.2c-0.7,0.6-1.5,1-2.3,1.3c-0.6,0.2-1.3,0.4-1.9,0.6c-0.8,0.2-1.4,0-2.1-0.4c-0.5-0.3-0.6-0.7-0.5-1.2 c0-0.1,0.2-0.3,0.3-0.4c0.3-0.3,0.7-0.4,1.1-0.6c1-0.4,2.1-0.6,3.1-0.9C41.4,13.1,41.6,13.1,41.8,13.1 M38.5,15 c0,0.2,0.1,0.3,0.2,0.3c0.5,0.2,0.9,0.3,1.4,0c0.1-0.1,0.3-0.1,0.4-0.2c0.6-0.5,1.1-1,1.7-1.5c0,0,0.1-0.1,0.1-0.2 c-0.1,0-0.1,0-0.1,0C40.9,13.9,39.7,14.5,38.5,15"></path> </svg> 