<?xml version="1.0" encoding="UTF-8"?> <!-- Generator: Adobe Illustrator 24.0.1, SVG Export Plug-In . SVG Version: 6.00 Build 0) --> <svg xmlns="http://www.w3.org/2000/svg" xmlns:xlink="http://www.w3.org/1999/xlink" id="Layer_1" x="0px" y="0px" viewBox="0 0 113.6 47.1" style="enable-background:new 0 0 113.6 47.1;" xml:space="preserve"> <style type="text/css"> .st0{fill:#707070;} </style> <path class="st0" d="M31.1,23.1c0-1.3,0.1-2.7,0-4c-0.2-3.4-0.8-6.7-2.2-9.9C26.8,4.1,23.1,1,17.4,0.7c-5-0.2-9.1,1.5-11.9,5.8 c-1.9,2.9-2.7,6.2-3.2,9.5c-0.6,4.8-0.6,9.7,0.2,14.5c0.5,3.4,1.5,6.7,3.4,9.7c4.4,7.1,13.5,6.9,18.1,3.5c2.5-1.9,4.1-4.4,5.2-7.3 C30.9,32.2,31.3,27.7,31.1,23.1 M17.4,0.1c1,0.2,2,0.2,3,0.5c4.2,1,7.1,3.6,9.2,7.2c1.8,3.3,2.8,6.8,3.3,10.5 c0.6,4.7,0.5,9.4-0.7,14.1c-0.7,2.9-1.8,5.6-3.5,8.1c-3.2,4.5-7.5,6.6-13,6.3c-5.5-0.3-9.4-3-12.1-7.6c-2-3.5-3-7.3-3.4-11.3 c-0.5-5.1-0.1-10.2,1.3-15.1c1-3.2,2.4-6.1,4.7-8.5c2.4-2.4,5.4-3.7,8.7-4c0.3,0,0.5-0.1,0.8-0.1H17.4z"></path> <path class="st0" d="M17.1,5.8c-0.8,0-1.6,0.8-1.6,1.7c0,0.7,0.5,1.2,1.2,1.2c0.8,0,1.6-0.8,1.6-1.6C18.3,6.4,17.8,5.8,17.1,5.8 M19.1,7.9c-0.1,0-0.2,0-0.2,0c-0.3,1.9-1.6,2.7-3.2,3.4c-0.3,0.1-0.5,0.3-0.7,0.5c-0.1,0.1-0.1,0.4-0.2,0.5c0.2,0,0.4,0.1,0.6,0.1 c0.8-0.1,1.7-0.3,2.5-0.4c0.8-0.2,1.4-0.6,1.5-1.4c0.1-0.7,0.1-1.4,0.1-2C19.4,8.3,19.3,8.1,19.1,7.9 M11.1,29.2c0,0.8,0,1.6,0,2.3 c0.1,0.8,0.1,1.6,0.3,2.4c0.5,1.8,1.8,2.6,3.6,2.3c0.3-0.1,0.6-0.1,0.9-0.2c1.4-0.4,2.7-0.5,4.1-0.1c1.1,0.3,2-0.2,2.5-1.3 c0.1-0.4,0.2-0.7,0.3-1.1c0.2-1.8,0-3.6-0.5-5.3c-0.8-2.6-1.2-5.2-1.4-7.9c-0.1-1.2-0.1-2.5-0.4-3.7c-0.3-1.6-1.3-2.6-3-2.9 c-1.6-0.2-2.9,0.4-3.7,1.7c-0.3,0.5-0.6,1-0.8,1.6C11.8,20.9,11.1,25,11.1,29.2 M24.8,40.4c-0.2,0-0.4,0-0.7-0.1 c-0.7-0.1-1.3,0-1.6,0.7c-0.2,0.4-0.7,0.6-1,0.1c-0.5-0.8-1.1-0.9-1.9-0.8c-0.1,0-0.3,0-0.6-0.2c0.4-0.4,0.9-0.7,1.3-1.1 c0.5-0.4,0.6-0.6,0.1-1.1c-0.4-0.3-0.9-0.5-1.3-0.6c-1.5-0.2-2.9,0.2-4.2,0.7c-0.4,0.1-0.6,0.4-0.3,0.8c0,0,0,0.1,0.1,0.1 c0.6,1.2,0.5,1.4-0.9,1.3c-0.7-0.1-1.3,0.3-1.8,0.7c-0.7,0.6-0.8,0.5-1.1-0.3c-0.1-0.2-0.4-0.3-0.7-0.4c-0.2-0.1-0.5,0-0.8-0.2 c0.1-0.1,0.3-0.2,0.4-0.3c0.7-0.4,1.4-0.7,2.1-1.1c0.5-0.2,0.5-0.5,0.1-0.8c-2.3-1.7-2.7-4.1-2.8-6.6c-0.1-2.2,0-4.5,0.5-6.7 c0.1-0.2,0-0.5,0-0.8c-0.1,0-0.1,0-0.2-0.1C9.3,24,9.1,24.2,9,24.4c-0.7,1.8-1.3,3.6-1.3,5.5c0,0.3-0.2,0.5-0.4,0.8 c-0.2-0.2-0.6-0.3-0.7-0.5c-0.6-1.2-0.5-2.5-0.3-3.8c0.3-2.8,1.6-5.2,3.1-7.5c1-1.5,2.1-2.9,3-4.5c0.5-0.8,0.9-1.8,1.1-2.7 c0.4-1.9-0.5-3.4-1.9-4.5c-0.6-0.4-1.2-0.8-1.7-1.3C9.8,5.7,9.7,5.4,9.5,5.1c0.3,0,0.6-0.2,0.9-0.1c1.5,0.4,3,0.5,4.5,0 c3.2-1,5.6,0.6,5.7,3.9c0.1,3,1.2,5.6,2.8,8.1c1.5,2.2,2.9,4.4,3.6,7c0.4,1.6,0.5,3.2,0.6,4.8c0,0.4-0.1,0.9-0.3,1.3 c-0.2,0.4-0.6,0.5-0.8,0.1c-0.2-0.3-0.2-0.6-0.3-0.9c-0.8-2-1.6-4.1-2.4-6.1c-0.1-0.2-0.4-0.3-0.5-0.4c0,0.2-0.1,0.5-0.1,0.7 c0.5,1.9,1.1,3.9,1.4,5.8c0.4,2.5,0.4,5.1-1.1,7.3c-0.2,0.2-0.3,0.5-0.4,0.8c-0.3,0.9-0.2,1.3,0.6,1.9c0.4,0.3,0.8,0.6,1.2,0.9 C24.9,40.2,24.8,40.3,24.8,40.4"></path> <path class="st0" d="M16.3,7.5C16.7,7.2,17,7,17.3,6.9c0.1,0,0.5,0.5,0.4,0.6C17.6,7.8,17.3,8,17,8.2C16.9,8.2,16.6,7.9,16.3,7.5"></path> <path class="st0" d="M41.6,34.2h6.2c0,0.1,0,0.3,0,0.5c-0.8,0.1-1.5,0.1-2.2,0.1c-0.4,0-0.5,0.1-0.5,0.5c0,1.4,0,2.8,0,4.2 c0,0.2,0,0.4,0.3,0.4c2.2,0,4.5,0,6.7,0c0,0,0.1,0,0.2,0c0-0.1,0-0.3,0-0.4c0-1.4,0-2.7,0-4.1c0-0.4-0.1-0.5-0.5-0.5 c-0.7,0-1.5-0.1-2.2-0.1v-0.5h0.7c1.7,0,3.4,0,5.2,0c0.2,0,0.4-0.1,0.4,0.2c0,0.3-0.2,0.3-0.4,0.3c-0.6,0.1-1.3,0.1-1.9,0.1 c-0.3,0-0.4,0.1-0.4,0.4c0,3.5,0,6.9,0,10.4c0,0.3,0.1,0.4,0.4,0.4c0.7,0,1.3,0.1,2,0.1c0.1,0,0.2,0.2,0.3,0.3 c-0.1,0.1-0.2,0.2-0.3,0.2c-1.9,0-3.9,0-5.8,0c0,0-0.1,0-0.1,0c-0.1-0.3-0.1-0.5,0.3-0.5c0.7,0,1.3-0.1,2-0.1c0.3,0,0.4-0.1,0.4-0.4 c0-1.6,0-3.2,0-4.8c0-0.3-0.1-0.4-0.4-0.4c-2.2,0-4.3,0-6.5,0c-0.3,0-0.4,0.1-0.4,0.4c0,1.6,0,3.2,0,4.7c0,0.3,0.1,0.4,0.4,0.4 c0.7,0,1.5,0.1,2.3,0.1v0.4h-6.2c-0.1-0.3,0-0.5,0.3-0.5c0.6,0,1.3-0.1,1.9-0.1c0.3,0,0.4-0.1,0.4-0.4c0-3.5,0-7,0-10.5 c0-0.3-0.1-0.4-0.4-0.4c-0.6,0-1.3-0.1-1.9-0.1C41.5,34.7,41.5,34.6,41.6,34.2"></path> <path class="st0" d="M99.8,22.3c0.1-0.2,0.3-0.3,0.4-0.5c0.9-1,1.9-1.5,3.2-1.4c1,0.1,1.7,0.7,2,1.6c0,0.1,0.1,0.2,0.1,0.3 c0.1-0.2,0.2-0.3,0.3-0.4c0.7-0.9,1.6-1.4,2.8-1.6c1.6-0.2,2.8,0.7,2.9,2.4c0.1,1.1,0,2.2,0,3.3c0,0.8,0,1.7,0,2.5 c0,0.3,0.1,0.4,0.3,0.4c0.5,0,0.9,0.1,1.4,0.1c0.3,0,0.3,0,0.2,0.4h-3.1c-0.3,0-0.6,0-0.9,0c-0.1,0-0.3-0.1-0.4-0.2 c0.1-0.1,0.2-0.2,0.4-0.3c0.3-0.1,0.7-0.1,1-0.1c0.1,0,0.3-0.2,0.3-0.3c0-1.8,0-3.6,0-5.4c0-1.7-1.2-2.5-2.8-2 c-1,0.3-1.7,0.9-2.2,1.8c-0.1,0.1-0.1,0.3-0.1,0.4c0,1.7,0,3.5,0,5.2c0,0.3,0.1,0.5,0.4,0.5c0.4,0,0.8,0.1,1.2,0.1 c0.1,0,0.2,0.2,0.2,0.2c-0.1,0.1-0.2,0.2-0.2,0.2c-1.4,0-2.8,0-4.2,0c-0.1-0.3-0.1-0.4,0.2-0.4c0.4,0,0.8-0.1,1.2-0.1 c0.1,0,0.3-0.2,0.3-0.3c0-1.8,0.1-3.7,0-5.5c-0.1-1.7-1.3-2.5-2.9-1.9c-0.9,0.3-1.6,1-2.1,1.8c-0.1,0.1-0.1,0.3-0.1,0.5 c0,1.7,0,3.3,0,5c0,0.4,0.1,0.5,0.5,0.5c0.3,0,0.6,0.1,0.9,0.1c0.3,0,0.4,0.1,0.3,0.4h-4.6c-0.1-0.3-0.1-0.4,0.3-0.4 c0.5,0,1-0.1,1.6-0.1c0.1,0,0.3-0.2,0.3-0.3c0-2.3,0-4.6,0-6.9c0,0,0-0.1,0,0c-0.7,0-1.4,0.1-2.2,0.1c-0.1,0-0.2-0.1-0.4-0.2 c0.1-0.1,0.2-0.1,0.4-0.1c0.9-0.1,1.6-0.4,2.3-1c0.1-0.1,0.3-0.1,0.5-0.1c0.1,0,0.2,0.2,0.2,0.4c0,0.5,0,0.9,0,1.4 C99.7,22.3,99.7,22.3,99.8,22.3"></path> <path class="st0" d="M45.1,20.6c0,0.8,0,1.7,0,2.5c0,0.2,0,0.4,0.3,0.4c1.5,0,2.9,0,4.4,0c1.7-0.1,2.6-1.1,2.7-2.8 c0-1.6-0.9-2.8-2.5-2.9c-1.5-0.1-3,0-4.5-0.1c-0.3,0-0.3,0.2-0.3,0.4C45.1,19,45.1,19.8,45.1,20.6 M41.6,17.1c0.1,0,0.3,0,0.4,0 c2.6,0,5.2,0,7.8,0c1.4,0,2.6,0.5,3.2,1.8c1.1,2.3-0.2,4.8-2.7,5.2c-0.1,0-0.2,0-0.3,0.1c0,0.1,0.1,0.2,0.1,0.3c0.7,1.3,1.3,2.6,2,4 c0.1,0.3,0.3,0.4,0.6,0.4c0.6,0,1.3,0.1,1.9,0.2c0.4,0,0.4,0,0.3,0.5c-0.6,0-1.2,0-1.8,0c-0.5,0-1.1,0.1-1.4-0.1 c-0.4-0.2-0.5-0.8-0.7-1.3c-0.6-1.2-1.2-2.5-1.8-3.7c-0.1-0.3-0.3-0.4-0.6-0.4c-1,0-2,0-3,0c-0.3,0-0.4,0.1-0.4,0.4 c0,1.4,0,2.7,0,4.1c0,0.3,0.1,0.4,0.4,0.4c0.8,0,1.6,0.1,2.4,0.2v0.5h-6.3v-0.4c0.8-0.1,1.5-0.1,2.2-0.2c0.3,0,0.4-0.1,0.4-0.5 c0-3.4,0-6.9,0-10.3c0-0.3-0.1-0.5-0.4-0.5c-0.6,0-1.3-0.1-1.9-0.1C41.6,17.6,41.5,17.5,41.6,17.1"></path> <path class="st0" d="M78.7,16.3c0.6-0.1,1.3-0.2,1.9-0.4c0.3-0.1,0.6-0.2,0.8-0.4c0.5-0.4,0.8-0.9,0.7-1.5c-0.1-0.6-0.5-1-1-1.1 c-1-0.2-2.1-0.3-3.1-0.5c-0.7-0.1-1.4,0.1-1.9,0.5c-1,0.7-0.9,1.9,0.1,2.6C76.9,16.1,77.8,16.2,78.7,16.3 M78.7,3.9 c-1.6,0-2.8,1.2-2.9,2.7c0,1.5,1.2,2.8,2.8,2.8c1.6,0,2.8-1.1,2.8-2.7C81.5,5.2,80.3,4,78.7,3.9 M80.7,3.9c0.2-0.4,0.3-0.7,0.5-1 c0.3-0.4,0.7-0.8,1.2-0.7c0.2,0,0.4,0.2,0.5,0.4C83,2.8,82.8,3,82.5,3.1c-0.5,0.1-1,0.3-1.1,0.9c0,0.2,0,0.5,0.1,0.6 c0.8,1.1,0.9,2.3,0.4,3.6c-0.5,1.2-1.6,1.8-2.8,1.9c-0.7,0.1-1.3,0-2,0.1c-0.3,0-0.6,0.1-0.8,0.2c-0.4,0.2-0.4,0.7,0,0.9 c0.4,0.2,0.8,0.3,1.2,0.3c1,0.1,2,0.2,2.9,0.4c0.4,0.1,0.8,0.2,1.2,0.4c1.4,0.6,1.7,2.3,0.5,3.4c-0.6,0.5-1.3,0.8-2,0.9 c-1.4,0.2-2.7,0.3-4-0.4c-0.4-0.2-0.8-0.5-1.1-0.8c-0.7-0.9-0.5-2.2,0.4-2.8c0.3-0.2,0.6-0.3,1-0.5c-0.6-0.3-1.2-0.6-1.1-1.4 c0.1-0.8,0.8-0.9,1.5-1.1c-1-0.7-1.6-1.5-1.7-2.6c-0.1-0.8,0.1-1.5,0.5-2.1C76.2,4,77,3.6,78,3.4C79,3.2,79.9,3.4,80.7,3.9"></path> <path class="st0" d="M45.1,3.6c0,0.9,0,1.7,0,2.6c0,0.3,0.1,0.4,0.4,0.4c1.3,0,2.7,0,4,0c0.5,0,1-0.2,1.5-0.4 c1.1-0.7,1.3-1.8,1.2-2.9c-0.1-1.6-1.2-2.6-2.8-2.6c-1.3,0-2.6,0-3.9,0c-0.3,0-0.4,0.1-0.4,0.4C45.1,1.9,45.1,2.8,45.1,3.6 M41.6,12.5v-0.5c0.7,0,1.4-0.1,2.2-0.1c0.4,0,0.5-0.1,0.5-0.5c0-3.4,0-6.9,0-10.3c0-0.3-0.1-0.4-0.4-0.5c-0.7,0-1.5-0.1-2.2-0.2 c0-0.1,0-0.3,0-0.4c0.1,0,0.1,0,0.2,0c2.7,0,5.4,0,8,0c2.2,0,3.6,2,3.2,4.3c-0.3,1.9-1.5,2.9-3.5,3c-1.3,0-2.7,0-4,0 c-0.4,0-0.5,0.1-0.5,0.5c0,1.2,0,2.5,0,3.7c0,0.3,0.1,0.4,0.4,0.5c0.8,0,1.6,0.1,2.4,0.1c0,0.2,0,0.3,0,0.5H41.6z"></path> <path class="st0" d="M84.1,25c0-0.6,0-1.2,0-1.8c0-0.3-0.1-0.7-0.4-1c-1.5-1.8-4.5-1.5-5.5,0.7c-0.6,1.3-0.7,2.7-0.2,4.1 c0.6,2.1,3,3,4.8,1.8c0.8-0.5,1.4-1.2,1.3-2.3C84.1,26.1,84.1,25.6,84.1,25 M84.1,29.8v-1.5c-0.1,0.1-0.2,0.2-0.2,0.2 c-1.2,2.1-5.4,2.2-6.6-0.8c-0.7-1.7-0.7-3.3,0.1-4.9c1.2-2.6,4.5-3.1,6.5-1.1c0,0,0.1,0.1,0.2,0.2v-4.4c-0.5,0.1-0.9,0.3-1.4,0.3 c-0.3,0-0.6,0-0.8,0c-0.1,0-0.1-0.1-0.2-0.2c0.1-0.1,0.1-0.2,0.2-0.2c1-0.1,1.8-0.6,2.5-1.4c0.1-0.1,0.3-0.1,0.4-0.1 c0.1,0,0.2,0.2,0.2,0.3c0,0.1,0,0.2,0,0.3c0,4,0,8.1,0,12.1c0,0.4,0.1,0.5,0.5,0.5c0.5,0,1,0,1.7,0c-0.1,0.2-0.2,0.4-0.3,0.4 C85.9,29.7,85.1,29.7,84.1,29.8"></path> <path class="st0" d="M67.6,12.5h-5c-0.1-0.3-0.1-0.4,0.3-0.4c0.5,0,1-0.1,1.5-0.1c0.2,0,0.3-0.1,0.3-0.4c0-2.3,0-4.6,0-6.8 c0,0,0-0.1,0,0c-0.7,0-1.3,0.1-2,0.1c-0.1,0-0.2,0-0.3,0c-0.1,0-0.1-0.1-0.2-0.2c0.1-0.1,0.1-0.1,0.2-0.2c0.4-0.1,0.8-0.1,1.2-0.3 c0.4-0.2,0.8-0.5,1.3-0.7c0.1-0.1,0.3-0.1,0.5-0.1c0.1,0,0.2,0.2,0.2,0.4c0,0.5,0,1,0.1,1.5c0.1-0.1,0.2-0.2,0.3-0.3 c1-1.1,2.1-1.7,3.6-1.7c1.6,0.1,2.7,1.1,2.7,2.6c0.1,1.8,0,3.6,0,5.4c0,0.5,0.1,0.6,0.6,0.6c0.4,0,0.7,0.1,1.1,0.1 c0.3,0,0.4,0.2,0.3,0.4h-4.8c-0.1-0.3,0-0.4,0.3-0.4c0.5,0,1-0.1,1.5-0.1c0.2,0,0.3-0.1,0.3-0.4c0-1.8,0-3.6,0-5.4 c0-1.6-1.3-2.5-2.9-2.2c-1.2,0.3-2.1,1-2.8,2c-0.1,0.1-0.1,0.3-0.1,0.5c0,1.6,0,3.3,0,4.9c0,0.3,0.1,0.5,0.4,0.5 c0.4,0,0.9,0.1,1.3,0.1C67.6,12.1,67.7,12.2,67.6,12.5"></path> <path class="st0" d="M113.6,12.5h-4.9c-0.1-0.3,0-0.4,0.3-0.4c0.5,0,1-0.1,1.5-0.1c0.2,0,0.3-0.1,0.3-0.4c0-1.7,0-3.5,0-5.2 c0-1.7-1.3-2.7-3-2.3c-1.2,0.3-2.1,1-2.7,2C105,6.2,105,6.4,105,6.6c0,1.6,0,3.3,0,4.9c0,0.4,0.1,0.5,0.5,0.5c0.4,0,0.9,0.1,1.3,0.1 c0.3,0,0.4,0.1,0.3,0.4h-5c-0.1-0.3,0-0.4,0.3-0.4c0.5,0,1-0.1,1.5-0.1c0.1,0,0.3-0.2,0.3-0.3c0-2.3,0-4.6,0-6.8c0,0,0-0.1-0.1-0.1 c-0.1,0-0.3,0.1-0.4,0.1c-0.6,0-1.2,0.1-1.8,0.1c-0.1,0-0.2-0.1-0.3-0.2c0.1-0.1,0.2-0.2,0.3-0.2c1-0.1,1.8-0.4,2.5-1 c0.1-0.1,0.3-0.1,0.4-0.1c0.1,0,0.2,0.2,0.2,0.3c0,0.5,0,1,0,1.5c0,0,0.1,0,0.1,0c0.1-0.1,0.2-0.2,0.3-0.3c1-1.1,2.2-1.7,3.7-1.6 c1.6,0.1,2.6,1.2,2.6,2.9c0,1.7,0,3.4,0,5.1c0,0.4,0.1,0.6,0.5,0.6c0.4,0,0.8,0.1,1.2,0.1C113.6,12.1,113.7,12.2,113.6,12.5"></path> <path class="st0" d="M65,29.6c-0.1-0.3-0.1-0.4,0.3-0.5c0.5,0,1-0.1,1.6-0.1c0.1,0,0.3-0.2,0.3-0.3c0-2.3,0-4.6,0-6.9 c0,0,0-0.1-0.1-0.1c-0.3,0.1-0.7,0.2-1,0.2c-0.4,0-0.8,0-1.2,0c-0.1,0-0.2-0.1-0.2-0.2c0.1-0.1,0.1-0.2,0.2-0.2c1,0,1.8-0.4,2.6-1.1 c0.2-0.2,0.6,0,0.6,0.3c0,0.5,0,1,0,1.7c0.2-0.2,0.3-0.3,0.3-0.4c0.8-0.9,1.8-1.5,3.1-1.7c2-0.2,3.3,0.9,3.3,2.9c0,1.7,0,3.4,0,5.1 c0,0.4,0.1,0.5,0.5,0.5c0.4,0,0.8,0.1,1.2,0.1c0.1,0,0.2,0.2,0.3,0.2c-0.1,0.1-0.2,0.2-0.3,0.2c-1.4,0-2.9,0-4.3,0 c-0.1,0-0.2-0.1-0.3-0.2c0.1-0.1,0.2-0.2,0.3-0.2c0.5-0.1,1-0.1,1.4-0.1c0.3,0,0.4-0.1,0.4-0.4c0-1.7,0-3.3,0-5 c0-1.9-1.3-2.9-3.2-2.4c-1.1,0.3-2,1-2.6,2C68,23.3,68,23.5,68,23.6c0,1.7,0,3.3,0,5c0,0.3,0.1,0.4,0.4,0.4c0.5,0,1,0.1,1.5,0.1 c0.1,0,0.2,0.2,0.2,0.2c-0.1,0.1-0.2,0.2-0.2,0.2C68.2,29.6,66.6,29.6,65,29.6"></path> <path class="st0" d="M74,38.9c-0.8,0-1.4,0.1-2.1,0.1c-0.1,0-0.2-0.1-0.4-0.2c0.1-0.1,0.2-0.1,0.4-0.2c0.9-0.1,1.7-0.4,2.4-1 c0.1-0.1,0.3-0.1,0.5-0.1c0.1,0,0.2,0.3,0.2,0.4c0,2.6,0,5.2,0,7.8c0,0.4,0.1,0.5,0.5,0.5c0.5,0,1,0,1.4,0c0,0,0.1,0.1,0.1,0.1 c-0.1,0.1-0.2,0.3-0.3,0.3c-0.8,0.1-1.7,0.2-2.6,0.3v-1.7c0,0-0.1,0-0.1,0c-0.1,0.1-0.2,0.2-0.3,0.3c-0.8,1-1.9,1.5-3.2,1.6 c-1.9,0.1-3.1-1-3.1-2.9c0-1.6,0-3.2,0-4.8v-0.4c-0.7,0-1.2,0.1-1.8,0.1c-0.1,0-0.3-0.1-0.4-0.2c0.1-0.1,0.3-0.2,0.4-0.2 c0.8-0.1,1.4-0.4,2-0.9c0.1-0.1,0.4-0.2,0.5-0.2c0.1,0,0.2,0.3,0.2,0.5c0,1.9,0,3.9,0,5.8c0,0.4,0.1,0.8,0.2,1.2 c0.3,1,1.3,1.5,2.5,1.3c1.3-0.2,2.3-0.9,3.1-2c0.1-0.1,0.1-0.2,0.1-0.3C74,42.4,74,40.7,74,38.9C74,39,74,38.9,74,38.9"></path> <path class="st0" d="M92,4.7c-0.7,0-1.4,0.1-2.1,0.1c-0.1,0-0.2-0.1-0.4-0.2c0.1-0.1,0.2-0.1,0.4-0.2c0.9-0.1,1.7-0.4,2.4-1 c0.1-0.1,0.3-0.1,0.5-0.1c0.1,0,0.2,0.3,0.2,0.4c0,2.6,0,5.2,0,7.8c0,0.4,0.1,0.6,0.5,0.5c0.5,0,1,0,1.5,0c0,0,0.1,0.1,0.1,0.1 c-0.1,0.1-0.1,0.3-0.2,0.3c-0.9,0.1-1.7,0.2-2.7,0.3V11c0,0-0.1,0-0.1,0c-0.1,0.1-0.2,0.2-0.3,0.3c-1,1.1-2.3,1.7-3.8,1.6 c-1.5-0.1-2.5-1.2-2.5-2.8c0-1.6,0-3.2,0-4.9V4.7c-0.6,0.1-1.1,0.1-1.7,0.1c-0.1,0-0.3,0-0.4,0c-0.1,0-0.1-0.1-0.2-0.2 c0.1,0,0.1-0.1,0.2-0.1c0.9,0,1.7-0.4,2.4-1.1c0.1-0.1,0.3-0.1,0.4,0c0.1,0.1,0.2,0.2,0.2,0.4c0,1.9,0,3.8,0,5.7 c0,0.4,0,0.8,0.1,1.2c0.3,1.3,1.4,1.9,2.9,1.6c1.2-0.3,2.1-0.9,2.8-1.9C92,10.1,92,10,92,9.8C92,8.2,92,6.5,92,4.7 C92,4.8,92,4.7,92,4.7"></path> <path class="st0" d="M61.5,26.5c0-0.3,0-0.7,0-1c0-0.3-0.1-0.4-0.4-0.4c-0.8,0.1-1.7,0.1-2.5,0.3c-0.6,0.1-1.1,0.4-1.6,0.7 c-0.7,0.5-1,1.3-0.8,2c0.2,0.7,0.9,1.1,1.8,1.1c1,0,2-0.3,2.8-0.9c0.5-0.3,0.8-0.7,0.7-1.4C61.5,26.9,61.5,26.7,61.5,26.5 M64.3,28.3c0.3,0,0.3,0.2,0.2,0.4c-0.2,0.6-0.7,0.9-1.4,1c-0.7,0-1.2-0.3-1.5-0.8c0-0.1-0.1-0.2-0.1-0.3c-0.1,0.1-0.2,0.2-0.3,0.3 c-1.2,0.9-2.4,1.4-3.9,1.1c-0.9-0.2-1.6-0.6-1.8-1.6c-0.2-1,0.1-1.8,0.9-2.5c0.9-0.7,2-1,3.2-1.1c0.6-0.1,1.1-0.1,1.7-0.1 c0.2,0,0.4-0.1,0.4-0.3c0-0.5,0-1-0.1-1.4c-0.1-0.9-0.7-1.5-1.6-1.6c-0.6-0.1-1.2,0-1.8,0c-0.6,0.1-0.9,0.5-1.2,1 c-0.1,0.1-0.1,0.3-0.2,0.4c-0.1,0.3-0.4,0.4-0.6,0.3c-0.3-0.1-0.4-0.4-0.3-0.6c0.2-0.3,0.4-0.7,0.6-0.9c1.1-1,3.4-1.2,4.7-0.4 c0.6,0.3,0.9,0.9,1.1,1.5c0.1,0.4,0.1,0.9,0.1,1.3c0,1.3,0,2.5,0,3.8c0,0.3,0,0.5,0.1,0.8c0.1,0.4,0.3,0.7,0.8,0.8 c0.5,0.1,0.8-0.1,1-0.6C64.2,28.4,64.2,28.3,64.3,28.3"></path> <path class="st0" d="M87.4,41.4c0.1,0,0.3,0,0.4,0c1.9,0,3.7,0,5.6,0c0.4,0,0.5-0.2,0.4-0.5c-0.3-2.2-2.2-3.4-4.3-2.6 C88.3,38.8,87.3,40.3,87.4,41.4 M94.5,42.1H94c-2.1,0-4.2,0-6.2,0c-0.4,0-0.5,0.1-0.5,0.5c0.1,1.1,0.3,2.1,1.1,2.9 c1.1,1.1,3.3,1.3,4.5,0.4c0.3-0.2,0.6-0.6,0.8-0.9c0.2-0.3,0.2-0.3,0.7-0.1c-0.3,0.9-0.9,1.6-1.8,1.9c-2.3,0.8-5.5,0.1-6.1-3.5 c-0.2-1.5-0.1-3,0.9-4.2c1.1-1.4,3.2-2,4.9-1.2C93.9,38.5,94.8,40.2,94.5,42.1"></path> <path class="st0" d="M54.4,7.2c0.1,0,0.1,0.1,0.1,0.1c2,0,4,0,6.1,0c0.1,0,0.3-0.2,0.3-0.3c-0.1-1.1-0.5-2.1-1.6-2.6 C57.3,3.4,54.7,4.3,54.4,7.2 M61,10.5c0.1,0.1,0.3,0.1,0.4,0.2c-0.3,0.8-0.8,1.5-1.6,1.8c-2.3,1.1-5.2,0.1-6-2.3 c-0.6-1.7-0.5-3.3,0.4-4.9c0.9-1.7,3-2.4,4.9-1.7c1.7,0.6,2.7,2.4,2.5,4.3c-0.2,0-0.3,0-0.5,0c-2.1,0-4.2,0-6.3,0 c-0.4,0-0.5,0.1-0.5,0.5c0.1,1.2,0.4,2.3,1.4,3.1C57.4,12.9,59.7,12.4,61,10.5"></path> <path class="st0" d="M83.8,39c0-0.5,0-0.8,0-1.2c0-0.1,0.1-0.2,0.2-0.3c0.1,0.1,0.2,0.1,0.3,0.2c0.2,1,0.3,1.9,0.5,2.9 c0,0.1-0.1,0.2-0.1,0.3c-0.1-0.1-0.2-0.1-0.3-0.2c-0.3-0.4-0.5-0.8-0.7-1.2c-0.9-1.5-2.5-1.6-3.8-1.2c-0.6,0.2-1,0.6-1.1,1.3 c-0.1,0.6,0.2,1.1,0.7,1.4c0.5,0.3,1.1,0.5,1.6,0.7c0.7,0.2,1.5,0.4,2.2,0.6c1.4,0.5,2,1.5,1.7,2.8c-0.2,1-1.1,1.7-2.4,1.8 c-1.6,0.2-2.9-0.2-3.8-1.6c0,0-0.1-0.1-0.2-0.1v1.5c-0.3,0.1-0.4,0.1-0.5-0.2c-0.2-1-0.4-2.1-0.5-3.1c0.2-0.2,0.4-0.2,0.6,0.1 c0.4,0.6,0.7,1.1,1.1,1.7c0.9,1.1,2.3,1.5,3.7,1.1c0.7-0.2,1.2-0.7,1.3-1.4c0.1-0.8-0.3-1.4-1-1.7c-0.7-0.3-1.5-0.5-2.2-0.7 c-0.7-0.2-1.4-0.5-2-0.8c-0.8-0.4-1.2-1.2-1-2.1c0.1-0.9,0.7-1.5,1.5-1.8c1.2-0.4,3.2-0.3,4.1,1C83.6,38.8,83.6,38.8,83.8,39"></path> <path class="st0" d="M95,25.2c0-0.4-0.1-0.7-0.1-1.1c-0.3-1.7-1.5-2.9-3.2-3c-1.8-0.1-3.1,0.8-3.6,2.5c-0.4,1.3-0.3,2.6,0.3,3.9 c0.6,1.2,1.6,1.8,2.9,1.8c1.4,0.1,2.4-0.5,3.2-1.7C94.8,26.9,95,26.1,95,25.2 M95.8,25.1c-0.1,1.7-0.5,3.2-1.9,4.2 c-2.2,1.5-6.5,1-6.9-3.5c-0.1-1.3,0.1-2.5,0.8-3.6c1-1.4,2.7-2.1,4.6-1.7c1.7,0.4,3,1.6,3.3,3.5C95.7,24.4,95.8,24.8,95.8,25.1"></path> <path class="st0" d="M56.7,42.3c0.1,0.6,0.2,1.3,0.4,1.9c0.5,1.3,1.3,2.1,2.7,2.3c1.5,0.2,2.7-0.2,3.5-1.6c0.9-1.7,1-3.4,0-5.1 c-1.3-2.2-4.5-2.2-5.8,0C57,40.5,56.8,41.4,56.7,42.3 M55.9,42.2c0.1-0.6,0.2-1.3,0.4-2c0.6-1.8,2.2-2.7,4.1-2.7c1.9,0,3.4,1,4,2.8 c0.6,1.8,0.5,3.6-0.7,5.2c-1.1,1.4-2.6,1.7-4.3,1.5c-1.7-0.3-2.7-1.3-3.2-2.9C56.1,43.5,56,42.9,55.9,42.2"></path> <path class="st0" d="M95.9,12.5c-0.1-0.3,0-0.5,0.3-0.5c0.5,0,1-0.1,1.5-0.1c0.2,0,0.4-0.1,0.4-0.3c0-2.3,0-4.5,0-6.8 c0-0.1,0-0.1,0-0.1c-0.7,0-1.4,0.1-2.1,0.1c-0.1,0-0.2-0.1-0.4-0.2c0.1-0.1,0.2-0.1,0.4-0.2c0.9-0.1,1.6-0.4,2.3-1 c0.1-0.1,0.4-0.2,0.5-0.1c0.1,0,0.2,0.3,0.2,0.4c0,2.5,0,5,0,7.5c0,0.4,0.1,0.6,0.5,0.6c0.4,0,0.9,0.1,1.3,0.1 c0.1,0,0.2,0.1,0.3,0.2c-0.1,0.1-0.2,0.2-0.2,0.2C99.2,12.5,97.6,12.5,95.9,12.5"></path> </svg> 