<?xml version="1.0" encoding="UTF-8"?> <!-- Generator: Adobe Illustrator 24.0.1, SVG Export Plug-In . SVG Version: 6.00 Build 0) --> <svg xmlns="http://www.w3.org/2000/svg" xmlns:xlink="http://www.w3.org/1999/xlink" id="Layer_1" x="0px" y="0px" viewBox="0 0 128.7 26" style="enable-background:new 0 0 128.7 26;" xml:space="preserve"> <style type="text/css"> .st0{fill:#707070;} </style> <g> <path class="st0" d="M4.4,19.2c2.3,2.1,4.6,2.7,5.6,1.9c1.1-1-3-3.4-5.1-5.9C3.4,13.5,2.7,10.9,4,8c1.1-2.6,3.6-5.5,5.9-7.1 c0.9-0.6,2.4-1.1,4.1-0.6c1.3,0.5,2.7,1.4,3.4,2.3c1.1,1.2,1,2.6,0.9,3.6c-0.3,1.8-1.3,4.9-2.1,6.5c-0.4,0.8-0.8,0.9-1.5,0.6 c-2-0.9-2.9-2.1-2.6-3.7c0.3-1.4,1.5-4.4,1-4.7c-0.8-0.5-5.9,4.8-3.8,7.6c2.3,3.1,7.5,5.1,5.6,8.7C13.6,24,11.5,26,8.2,26 c-2.6,0-5.2-1.2-7.4-4.4c-1.1-1.6-1-2.2-0.2-2.6C1.8,18.3,3.5,18.5,4.4,19.2z"></path> <path class="st0" d="M27.6,3.8c-1.8,4.9-5.1,15.5-6.7,21.2c-0.2,0.9-0.6,1-1.4,0.8c-0.8-0.2-1.8-0.7-2.5-1.1 c-0.7-0.5-0.8-1-0.6-2.2c1-4.5,4.3-16.3,6.1-21.3c0.4-1,0.9-1.1,1.7-0.8c0.9,0.3,2.1,1,2.8,1.5C27.8,2.5,27.9,2.9,27.6,3.8z"></path> <path class="st0" d="M33.4,8.8c-1.2,4-3.5,11.5-4.7,16.1c-0.3,1-0.7,1.2-1.6,0.9c-0.5-0.2-1.1-0.5-1.6-0.8c-1-0.6-1.1-1.3-0.8-2.9 c1.1-5.2,4.4-16,6.1-20.7c0.4-0.9,0.8-1.2,1.5-1.2c1.1,0,3,0.6,3.9,1.1c1.2,0.6,1.5,1.1,1.5,2.4l0,2.1l0,5.3v2.5 c1.9-4,5.4-9.9,7.1-12.6c0.6-0.9,1.2-1.1,2.3-1c0.9,0.2,2.7,0.7,4.2,1.5c0.8,0.4,1,1,0.6,2.2c-1.5,5.4-5,16.3-6.3,21.2 c-0.2,0.6-0.5,1-1,1c-0.6,0-1.6-0.4-2.2-0.8c-1-0.6-1.3-1.1-0.9-3c0.7-3.1,2.4-9.1,4-14c-2.1,3.8-5.6,10.1-8,14.7 c-0.4,0.7-0.6,1-1,1c-0.5,0-1.2-0.2-2-0.6c-0.8-0.4-1.1-0.9-1.2-2.2C33.2,18.6,33.3,12.1,33.4,8.8z"></path> <path class="st0" d="M58,8.8c-1.2,4-3.5,11.5-4.7,16.1c-0.3,1-0.7,1.2-1.6,0.9c-0.5-0.2-1.1-0.5-1.6-0.8c-1-0.6-1.1-1.3-0.8-2.9 c1.1-5.2,4.4-16,6.1-20.7c0.4-0.9,0.8-1.2,1.5-1.2c1.1,0,3,0.6,3.9,1.1c1.2,0.6,1.5,1.1,1.5,2.4l0,2.1l0,5.3v2.5 c1.9-4,5.4-9.9,7.1-12.6c0.6-0.9,1.2-1.1,2.3-1c0.9,0.2,2.7,0.7,4.2,1.5c0.8,0.4,1,1,0.6,2.2c-1.5,5.4-5,16.3-6.3,21.2 c-0.2,0.6-0.5,1-1,1c-0.6,0-1.6-0.4-2.2-0.8c-1-0.6-1.3-1.1-0.9-3c0.7-3.1,2.4-9.1,4-14c-2.1,3.8-5.6,10.1-8,14.7 c-0.4,0.7-0.6,1-1,1c-0.5,0-1.2-0.2-2-0.6c-0.8-0.4-1.1-0.9-1.2-2.2C57.8,18.6,57.9,12.1,58,8.8z"></path> <path class="st0" d="M92.9,5.8c0.3,5.4-1.9,14-6.4,18.4c-1.5,1.5-3.1,1.9-5.1,1.6c-1.3-0.2-2.8-0.6-3.8-1.3c-0.8-0.6-1.7-1.6-2-2.9 c-1.7-5.7,1.7-15.7,7.3-20.3c1.1-1,2.9-1.4,4.2-1.2c1.7,0.2,3.4,1,4.3,1.9C92.4,3,92.9,4.3,92.9,5.8z M81.9,12.3 c-1.4,3.7-2.1,8.7-0.7,9.3c1.4,0.6,3.7-2.9,5.3-7.6c1.2-3.6,2.1-9.1,0.8-9.5C86.1,4.2,83.3,8.6,81.9,12.3z"></path> <path class="st0" d="M109.2,1.2c0.4-1,0.9-1.1,1.7-0.9c0.6,0.2,1.3,0.5,1.8,0.8c0.9,0.6,1.1,1,0.8,2.3c-1.8,5.7-4.7,15.1-6.3,21.2 c-0.2,1-0.9,1.1-1.8,0.9c-0.7-0.2-1.6-0.6-2.2-0.9c-0.7-0.4-1.1-1-1.4-2c-0.7-3-1.1-6.9-1.5-12c-1,3.1-2.7,8.7-4.3,14.3 c-0.2,0.8-0.6,1.1-1.5,0.8c-0.6-0.2-1.3-0.6-1.7-0.8c-0.9-0.6-1.1-1-0.8-2.7c0.9-4,4.3-15.3,6.2-20.9c0.3-0.8,0.7-1,1.3-1 c0.6,0,2.2,0.6,3.3,1.1c0.9,0.5,1.1,0.9,1.2,2c0.2,3.7,0.5,8.3,0.9,12.5C105.9,11.7,107.9,5,109.2,1.2z"></path> <path class="st0" d="M114.6,19.2c2.3,2.1,4.6,2.7,5.6,1.9c1.1-1-3-3.4-5.1-5.9c-1.5-1.7-2.2-4.3-0.9-7.2c1.1-2.6,3.6-5.5,5.9-7.1 c0.9-0.6,2.4-1.1,4.1-0.6c1.3,0.5,2.7,1.4,3.4,2.3c1.1,1.2,1,2.6,0.9,3.6c-0.3,1.8-1.3,4.9-2.1,6.5c-0.4,0.8-0.8,0.9-1.5,0.6 c-2-0.9-2.9-2.1-2.6-3.7c0.3-1.4,1.5-4.4,1-4.7c-0.8-0.5-5.9,4.8-3.8,7.6c2.3,3.1,7.5,5.1,5.6,8.7c-1.3,2.6-3.5,4.6-6.8,4.6 c-2.6,0-5.2-1.2-7.4-4.4c-1.1-1.6-1-2.2-0.2-2.6C112.1,18.3,113.8,18.5,114.6,19.2z"></path> </g> </svg> 