<?xml version="1.0" encoding="UTF-8"?> <!-- Generator: Adobe Illustrator 24.0.1, SVG Export Plug-In . SVG Version: 6.00 Build 0) --> <svg xmlns="http://www.w3.org/2000/svg" xmlns:xlink="http://www.w3.org/1999/xlink" id="Layer_1" x="0px" y="0px" viewBox="0 0 147.1 42.3" style="enable-background:new 0 0 147.1 42.3;" xml:space="preserve"> <style type="text/css"> .st0{fill:#707070;} </style> <path class="st0" d="M130.8,28.7c-2.2,4.8,5.8,6.6,8.3,3.8c1.4-1.6,0.8-3.3,1-6C136.3,26.7,132,26.2,130.8,28.7z M143.9,13.3 c1.6,1.7,2.8,4.8,3,8.1c0.2,2.9,0.3,6.4,0,9.5c-0.4,4.1-3.1,7.5-6.6,8.3c-3,0.6-7.3,0.6-10.1-0.2c-2.8-0.8-5.1-2.7-6.1-4.8 c-1.4-2.9-0.8-6.6,0.8-8.6c2.6-3.3,7.9-4,15-4c0.8-7.2-8.1-6.2-12.1-3.6c-0.7,0.5-1.3,1.2-1.9,1.2C124.3,8.7,139.1,8,143.9,13.3z"></path> <path class="st0" d="M101.8,29.9c1.2,2.4,5.1,4.1,7.9,3c4.4-1.7,5.5-10.7,2.5-14.7c-1.1-1.4-3.5-2.5-6.2-2 C101.1,17,99.2,24.8,101.8,29.9z M93.5,1c8.4-1.6,7.1,5.9,7.1,12.8c1.1-0.8,2-2.2,3.4-3c1-0.6,2-1,3-1.1c9.2-1.2,14.9,6.5,14.2,16 c-0.6,7.8-5.6,13.2-13.4,13.6c-7.9,0.4-13.5-5.7-14-13c-0.6-8,0.2-15.9-0.4-25C93.3,1.2,93.3,1.1,93.5,1z"></path> <path class="st0" d="M84.6,5.4c-1.6,3.7-8.8,2.4-7.1-3c0.3-0.8,1.3-1.9,2.8-2.2C83.5-0.5,85.9,2.3,84.6,5.4z"></path> <path class="st0" d="M74.2,9.8c9.1-0.8,15.1,5.3,15.1,14.5c0,9.1-5.8,15.7-15.2,15.1c-6.6-0.4-10.8-5.1-12-11.1 c-1-5.3,0.5-11.1,3.2-14.2C67.1,12,70.2,10.1,74.2,9.8z M70.7,30.9c1.8,2.5,6.9,2.9,9.1,0.8c3.3-3.2,2.6-11.9-0.5-14.5 c-1-0.9-3.1-1.4-4.8-1.2c-1.9,0.2-2.4,0.5-3.2,1.2C68.6,19.6,68.1,27.4,70.7,30.9z"></path> <path class="st0" d="M69,0.3c2.2-0.4,3.9,0.7,4.4,2.3c1.1,3.4-2.1,5.8-4.9,4.9C65.1,6.4,65.4,1,69,0.3z"></path> <path class="st0" d="M48.6,0.1c6.4-1.2,5.6,9-0.5,7.2C44.7,6.2,44.8,0.8,48.6,0.1z"></path> <path class="st0" d="M42.6,9.7c9.7-0.8,15.6,6.1,14.8,16.3c-0.3,4-2,7.6-4.3,9.8c-4.6,4.5-13.8,4.6-18.6,0.4 c-4.7-4.1-6.2-13.9-2.4-20.4C34.1,12.4,37.8,10.1,42.6,9.7z M39.8,31.7c1.5,1.3,4.8,1.9,7.1,0.7c4.9-2.5,4-14-0.5-16 c-0.9-0.4-2-0.5-3.2-0.5c-1.6,0.1-2.7,0.4-3.6,1.2C36.2,20.1,36.6,29,39.8,31.7z"></path> <path class="st0" d="M37.4,0.2c4.7-0.8,6.1,6.4,1.6,7.3c-2.6,0.5-5.9-1.7-4.4-5.3C34.9,1.4,35.9,0.5,37.4,0.2z"></path> <path class="st0" d="M0.9,7.9C1,7.9,1,7.9,1,8c2,4.5,10.7,2.8,17,2.9c5.5,0.1,5.2,5.2,2.9,8.7c-3.3,5.2-8.4,8.6-11.5,13.8 c5.7,1,15.8-2.2,18.7,1.7c1.2,1.6,1,5.1,0,7.2c-0.9-0.6-1.5-1.6-2.4-2.2c-1.6-0.9-3.6-0.9-5.9-0.7c-2.2,0.2-5,0-7.8,0.1 c-5.3,0.2-11.6,1.1-11.1-4.3c0.1-0.6,0.2-1.3,0.5-1.9c1.2-3.1,4.1-5.6,6.5-8.3s4.9-5.3,6.6-8C10,16.3,3.5,18.4,1,15.4 C-0.5,13.7-0.1,10.1,0.9,7.9z"></path> </svg> 