<?xml version="1.0" encoding="UTF-8"?> <svg xmlns="http://www.w3.org/2000/svg" width="349.835" height="367.897" viewBox="0 0 349.835 367.897"><g id="Group_330" data-name="Group 330" transform="translate(4129.19 -1333.604)"><path id="Path_297" data-name="Path 297" d="M-26.147-39.448V-68.9H79.335v29.448H43.485V70.072H9.8V-39.448Z" transform="translate(-4085.533 1403)" fill="#f74ea1" stroke="rgba(0,0,0,0)" stroke-width="1"></path><path id="Path_296" data-name="Path 296" d="M-21.313,70.072V-68.9H68.8v29.448H12.37v26.592H62.009V16H12.37V40.624H70.676V70.072Z" transform="translate(-3876.893 1403)" fill="#f74ea1" stroke="rgba(0,0,0,0)" stroke-width="1"></path><path id="Path_295" data-name="Path 295" d="M-34.473,70.072,16.84-68.9H53.478L104.594,70.072H68.843L57.123,38.063H13.393L1.673,70.072ZM22.454,9.206h26l-13.493-45.8Z" transform="translate(-4094 1630.928)" fill="#f74ea1" stroke="rgba(0,0,0,0)" stroke-width="1"></path><path id="Path_294" data-name="Path 294" d="M-41.724,70.072-26.345-68.9H-1.177l35.06,84.5,34.53-84.5H93.934L109.057,70.072H78.037l-8.6-74.724L44.608,53.92H22.135l-25-58.7-8.72,74.852Z" transform="translate(-3888.969 1630.928)" fill="#f74ea1" stroke="rgba(0,0,0,0)" stroke-width="1"></path></g></svg> 