<?xml version="1.0" encoding="UTF-8"?> <svg xmlns="http://www.w3.org/2000/svg" id="Group_251" data-name="Group 251" width="131.34" height="45.64" viewBox="0 0 131.34 45.64"><path id="Path_170" data-name="Path 170" d="M78.6,2.6h39.978V26.487h-8.034V10.012H78.935c-.12,0-.239.024-.335.024C78.6,7.549,78.6,5.063,78.6,2.6Z" transform="translate(-59.806 -1.962)" fill="#6f6f6f"></path><path id="Path_171" data-name="Path 171" d="M333.806,5.661c-.311.406-.622.837-.932,1.243a15.6,15.6,0,0,1-4.806,4.471,12.686,12.686,0,0,1-11.5.669c-1.817-.765-3.587-1.674-5.38-2.511a19.011,19.011,0,0,0-4.734-1.578,7.875,7.875,0,0,0-6.91,1.985A17.686,17.686,0,0,0,298.2,11.28c-.406.478-.789.98-1.148,1.435L291.7,7.359c.454-.6.909-1.267,1.435-1.913a15.251,15.251,0,0,1,4.471-3.921A12.391,12.391,0,0,1,302.7-.029a12.916,12.916,0,0,1,5.4.693c1.745.693,3.443,1.506,5.165,2.319a23.421,23.421,0,0,0,5.189,1.961A8.617,8.617,0,0,0,323,4.824a9.518,9.518,0,0,0,4.089-2.869c.478-.55.932-1.124,1.387-1.722l.239.239L333.5,5.255a2.546,2.546,0,0,0,.263.215A.322.322,0,0,1,333.806,5.661Z" transform="translate(-221.953 0.07)" fill="#6f6f6f"></path><g id="Group_250" data-name="Group 250" transform="translate(0 28.853)"><path id="Path_172" data-name="Path 172" d="M8.417,139.462c.359,0,.406-.024.574-.287l1.865-3.252h.287v4.423H0v-.311l1.937-1.052a.385.385,0,0,0,.239-.43V126.717c0-.263-.048-.335-.239-.43L0,125.211V124.9H6.5v.311l-1.937,1.052a.385.385,0,0,0-.239.43v12.457c0,.263.048.311.287.311Z" transform="translate(0 -123.872)" fill="#6f6f6f"></path><path id="Path_173" data-name="Path 173" d="M54.589,130.06a.475.475,0,0,0-.167-.43L52.7,128.123v-.263h3.874v9.062a.4.4,0,0,0,.239.43l1.65.98v.263H52.7v-.263l1.65-.98c.191-.143.239-.191.239-.43Zm.622-7.46a1.459,1.459,0,0,1,0,2.917,1.46,1.46,0,0,1,0-2.917Z" transform="translate(-40.099 -122.122)" fill="#6f6f6f"></path><path id="Path_174" data-name="Path 174" d="M88.834,154.651v-.263l1.626-.98c.239-.143.263-.191.263-.43.024-.717.024-3.515.024-4.543,0-2.8-1.052-3.467-2.248-3.467a3.172,3.172,0,0,0-2.726,1.937V153a.4.4,0,0,0,.239.43l1.65.98v.263H81.9v-.263l1.65-.98c.191-.143.239-.191.239-.43v-6.838a.475.475,0,0,0-.167-.43L81.9,144.226v-.263h3.634v2.1a3.927,3.927,0,0,1,3.587-2.367c2.248,0,3.634,1.435,3.634,4.423,0,1.482-.024,3.18-.048,4.9a.4.4,0,0,0,.239.43l1.65.98v.263H88.834Z" transform="translate(-62.317 -138.177)" fill="#6f6f6f"></path><path id="Path_175" data-name="Path 175" d="M147.643,137.074v-1.913a3.67,3.67,0,0,1-3.371,2.176c-2.272,0-4.471-1.961-4.471-5.476,0-3.706,2.463-5.81,5.045-5.81a4.032,4.032,0,0,1,2.558.861v-3.778a.479.479,0,0,0-.191-.454l-1.315-1.1v-.263l3.491-.717v14.275c0,.215.024.263.239.478l1.482,1.459v.263ZM147.4,134.3v-6.288a3.1,3.1,0,0,0-2.248-.98c-1.506,0-3.2,1.315-3.2,4.639,0,2.965,1.339,4.423,2.869,4.423A2.837,2.837,0,0,0,147.4,134.3Z" transform="translate(-106.373 -120.6)" fill="#6f6f6f"></path><path id="Path_176" data-name="Path 176" d="M195.156,148.684c0,3.539,1.841,4.591,3.563,4.591a4.534,4.534,0,0,0,3.347-1.506l.215.167a4.413,4.413,0,0,1-4.28,2.75c-2.7,0-4.9-1.817-4.9-5.523,0-3.826,2.248-5.762,4.83-5.762,2.3,0,4.137,1.291,4.137,4.806v.454h-6.91Zm.024-.837h4.854c-.1-2.224-.765-3.563-2.248-3.563C196.447,144.285,195.348,145.552,195.18,147.847Z" transform="translate(-146.929 -137.948)" fill="#6f6f6f"></path><path id="Path_177" data-name="Path 177" d="M245.234,154.651v-.263l1.626-.98c.239-.143.263-.191.263-.43.024-.717.024-3.515.024-4.543,0-2.8-1.052-3.467-2.248-3.467a3.172,3.172,0,0,0-2.726,1.937V153a.4.4,0,0,0,.239.43l1.65.98v.263H238.3v-.263l1.65-.98c.191-.143.239-.191.239-.43v-6.838a.475.475,0,0,0-.167-.43l-1.722-1.506v-.263h3.634v2.1a3.9,3.9,0,0,1,3.587-2.367c2.248,0,3.634,1.435,3.634,4.423,0,1.482-.024,3.18-.048,4.9a.4.4,0,0,0,.239.43l1.65.98v.263h-5.762Z" transform="translate(-181.321 -138.177)" fill="#6f6f6f"></path><path id="Path_178" data-name="Path 178" d="M318.9,138.9v-4.376h.287l1.889,3.682c.143.239.191.335.454.406a6.374,6.374,0,0,0,1.626.167c2.319,0,3.85-1.172,3.85-2.941,0-1.578-1.028-2.343-2.726-3.061l-1.865-.765c-1.674-.67-3.347-1.865-3.347-4.184,0-2.678,2.3-4.328,5.523-4.328a13.9,13.9,0,0,1,3.467.406v4.137h-.287L326,124.719a.541.541,0,0,0-.43-.335,6.077,6.077,0,0,0-.98-.072c-2.272,0-3.539,1.291-3.539,2.917,0,1.219.669,2.08,2.343,2.8l2.032.837c2.032.861,3.658,1.817,3.658,4.113,0,2.726-2.128,4.615-5.834,4.615A12.125,12.125,0,0,1,318.9,138.9Z" transform="translate(-242.649 -122.807)" fill="#6f6f6f"></path><path id="Path_179" data-name="Path 179" d="M371.706,128.6v3.826h3.634v1.052h-3.634v6.814a1.6,1.6,0,0,0,1.626,1.817,2.454,2.454,0,0,0,1.913-1.028l.239.143a3.139,3.139,0,0,1-3.084,2.2c-1.65,0-2.678-1.028-2.678-3.013v-6.934H368v-1.052h1.339c.359,0,.406,0,.574-.406l1.53-3.419Z" transform="translate(-280.009 -126.687)" fill="#6f6f6f"></path><path id="Path_180" data-name="Path 180" d="M411.412,148.736c0-.741.024-1.411.024-1.722,0-1.841-.861-2.726-2.439-2.726a3.2,3.2,0,0,0-.574.048.463.463,0,0,0-.359.287l-1.363,2.535h-.263l-.741-2.941a8.837,8.837,0,0,1,3.539-.717c2.989,0,4.041,1.435,4.041,3.754,0,1.841-.1,3.634-.1,5.093,0,.741.311,1.2.789,1.2a1.186,1.186,0,0,0,.909-.5l.191.167a1.944,1.944,0,0,1-1.961,1.53,1.728,1.728,0,0,1-1.769-1.889,3.747,3.747,0,0,1-3.252,1.889,2.747,2.747,0,0,1-2.989-2.774c0-2.008,1.793-3.443,4.471-3.443A9.666,9.666,0,0,1,411.412,148.736Zm-.072,2.917c.024-.622.048-1.387.048-2.152a6.409,6.409,0,0,0-1.267-.12c-1.817,0-2.941,1-2.941,2.391a1.669,1.669,0,0,0,1.745,1.793A2.793,2.793,0,0,0,411.341,151.653Z" transform="translate(-308.238 -138.024)" fill="#6f6f6f"></path><path id="Path_181" data-name="Path 181" d="M457.023,155.336v-2.1a4.238,4.238,0,0,1-3.682,2.367c-2.032,0-3.3-1.315-3.3-4.208,0-1.674.048-2.845.048-4.567,0-.263-.024-.335-.215-.478l-1.674-1.482V144.6h3.9c-.048.717-.048,5.332-.048,6.36,0,1.6.072,3.347,2.009,3.347a3.325,3.325,0,0,0,2.75-1.937v-5.547c0-.263-.024-.335-.215-.478l-1.674-1.482V144.6h3.874v8.536c0,.215.024.263.239.478l1.482,1.459v.263Z" transform="translate(-341.033 -138.861)" fill="#6f6f6f"></path><path id="Path_182" data-name="Path 182" d="M504.306,123.135a.479.479,0,0,0-.191-.454l-1.315-1.1v-.263l3.491-.717v7.125a3.781,3.781,0,0,1,3.2-1.65c2.463,0,4.423,2.1,4.423,5.284,0,4.041-2.7,5.978-4.973,5.978a3.886,3.886,0,0,1-2.869-1.148l-1.482,1.148h-.263v-14.2Zm1.985,5.715v6.241a2.358,2.358,0,0,0,2.176,1.267c1.745,0,3.276-1.506,3.276-4.878,0-2.582-1.172-4.184-2.965-4.184A2.834,2.834,0,0,0,506.291,128.849Z" transform="translate(-382.578 -120.6)" fill="#6f6f6f"></path></g></svg> 