<?xml version="1.0" encoding="UTF-8"?> <!-- Generator: Adobe Illustrator 24.0.1, SVG Export Plug-In . SVG Version: 6.00 Build 0) --> <svg xmlns="http://www.w3.org/2000/svg" xmlns:xlink="http://www.w3.org/1999/xlink" id="Layer_1" x="0px" y="0px" viewBox="0 0 32.4 70.8" style="enable-background:new 0 0 32.4 70.8;" xml:space="preserve"> <style type="text/css"> .st0{fill:#707070;} </style> <path class="st0" d="M0,52.8h32.4V0H0V52.8z M23.2,4.7h4.6v26.4h-4.6V4.7z M13.9,4.7h4.6v26.4h-4.6V4.7z M4.7,4.7h4.6v26.4H4.7V4.7z M16.2,47.9c-6.4,0-11.7-5-11.7-11.2c0-0.2,0-0.5,0-0.7h23.3c0,0.2,0,0.5,0,0.7C27.9,42.9,22.7,47.9,16.2,47.9"></path> <path class="st0" d="M11.1,61.4c0,0.2,0,0.4,0,0.6c0,1-0.3,1.6-0.5,2c-0.1,0.2-0.1,0.3-0.2,0.5c-0.1,0.2-0.2,0.3-0.3,0.5 c-0.2,0.3-0.3,0.4-0.4,0.6c-0.2,0.2-0.6,0.5-0.6,0.5c-0.5,0.3-0.8,0.6-1.8,0.8c-0.1,0-0.2,0-0.3,0c-0.1,0-0.2,0-0.3,0.1 c0,0-0.6,0-0.9,0c-0.3,0-0.7-0.1-1-0.1c-0.1,0-0.6,0-0.6,0c-0.1,0-0.1,0-0.2,0c-0.1,0-0.2,0-0.2,0.1c-0.1,0.1-0.3,0.3-0.4,0.4 c0,0.1,0,0.1,0,0.2c0,0.2-0.1,0.5-0.1,0.5c0,0.1,0,0.2,0,0.3c0,0.1,0,0.2,0,0.3c0,0.3,0,0.3,0,0.5c0,0.1,0,0.2,0,0.3 c0,0.3,0,0.3,0,0.7c0,0.2,0,0.4-0.2,0.5c-0.2,0.2-0.6,0.2-1.2,0.2c-0.4,0-0.8,0-1.1,0c-0.5,0-0.5,0.1-0.7-0.2 c-0.2-0.2-0.2-0.3-0.2-0.6c0-0.2,0-0.3,0-0.5c0-0.3,0-0.6,0-0.9c0-0.2,0-0.4,0-0.6c0-0.3-0.1-0.7-0.1-1c0-0.2,0-0.5,0-0.7v-0.8 c0-0.5,0.1-1.1,0.1-1.6c0-0.2,0-0.5,0-0.7c0-0.2,0.1-0.3,0.1-0.5c0-0.2,0-0.4,0-0.6c0-0.2,0-0.3,0-0.5c0-0.2-0.1-0.4-0.1-0.6 c0-0.2,0-0.4,0-0.6c0-0.3,0-0.5,0-0.8c0-0.2,0-0.4,0-0.6c0-0.3-0.1-0.7-0.1-1c0-0.5,0-0.8,0.5-1.1c0.5-0.3,0.4-0.2,0.9-0.2 c0.2,0,0.4-0.1,0.6-0.1c0.3,0,0.6,0,0.9,0c0.2,0,0.5,0,0.7,0c0.2,0,0.4,0,0.7,0c0.1,0,0.3,0,0.4,0c0.3,0,0.7,0,1,0 c0.6,0,0.9,0,1.9,0.3c0.1,0,0.4,0.1,0.7,0.3c0.2,0.1,0.4,0.2,0.5,0.3c0.1,0.1,0.6,0.3,0.9,0.7c0.3,0.3,0.4,0.5,0.5,0.6 c0,0.1,0.5,0.7,0.6,1.3c0.1,0.2,0.1,0.5,0.1,0.7c0,0.2,0.1,0.3,0.1,0.5V61.4z M3.4,61.5c0,0.2,0,0.1,0,0.3c0,0.1,0,0.2,0.1,0.3 c0,0.2,0,0.3,0,0.4c0,0.1,0.1,0.3,0.2,0.5c0.1,0.2,0.2,0.3,0.3,0.4c0.1,0.1,0.3,0.1,0.4,0.1c0.3,0.1,0.4,0.1,1,0.1 c0.2,0,0.3,0,0.5,0c0,0,0.4,0,0.5-0.1c0.1-0.1,0.3-0.1,0.4-0.2c0,0,0.2-0.1,0.3-0.1c0.1-0.1,0.2-0.2,0.3-0.3 c0.2-0.3,0.3-0.2,0.4-0.6C8,62.1,8,61.7,8,61.6c0-0.8,0.1-0.4-0.2-1c-0.1-0.2-0.1-0.3-0.2-0.5C7.5,60,7.5,60,7.3,59.8 c-0.2-0.2-0.3-0.3-0.4-0.3c-0.4-0.3-1.1-0.3-1.2-0.3c-0.2,0-0.5,0-0.7,0c-0.2,0-0.3,0-0.4,0c-0.1,0-0.1,0-0.3,0.1 c-0.1,0-0.2,0.1-0.4,0.1c-0.4,0.2-0.5,0.8-0.5,0.8c0,0,0,0.6,0,1V61.5z"></path> <path class="st0" d="M14.3,56.4c0.5,0,0.6-0.1,0.9,0.2c0.3,0.3,0.2,0.4,0.2,0.6v0.2c0,0.2,0,0.3,0,0.5c0,0.3,0,0.7,0,1 c0,0.1,0,0.4-0.1,0.7c0,0.1,0,0.3,0,0.4c0,0.1,0,0.2,0,0.4c0,0.1,0,0.6,0.2,0.6c0.2,0,0.4-0.2,0.6-0.3c0.1-0.1,0.2-0.1,0.5-0.1 c0.1,0,0.3-0.1,0.4-0.1c0.1,0,0.3,0,0.4,0c0.1,0,0.3,0,0.4,0c0.2,0,0.8,0.1,0.9,0.1c0.1,0,0.7,0.3,1.1,0.6c0.2,0.1,0.3,0.3,0.4,0.5 c0.3,0.4,0.3,0.2,0.5,0.7c0,0.1,0.1,0.2,0.1,0.3l0.1,0.4c0.2,0.7,0.1,1.3,0.1,2.1c0,0.3,0,0.6,0,0.9c0,0.3,0,0.6,0,0.9v0.7 c0,0.2,0,0.4,0,0.6c0,0.2,0,0.4,0,0.6c0,0.1,0,0.3,0,0.4c0,0.6,0.1,0.8-0.2,1.1c-0.3,0.4-0.3,0.3-0.8,0.3c-0.2,0-0.3,0-0.5,0 c-0.1,0-0.3,0-0.5,0c-0.2,0-0.4,0-0.6,0c-0.1,0-0.3,0.1-0.5-0.1c-0.2-0.3-0.2-0.6-0.2-1v-0.5c0-0.2,0-0.4,0-0.5c0-0.2,0-0.4,0-0.7 c0-0.2,0-0.3,0-0.5c0-0.2,0-0.5,0-0.7c0-0.2,0-0.4,0-0.6l-0.1-0.6c0-0.4-0.1-0.7-0.1-0.8c-0.1-0.2,0-0.1-0.1-0.3 c-0.1-0.1-0.1-0.2-0.2-0.3c-0.1-0.1-0.4-0.3-0.7-0.3c-0.2,0-0.3,0-0.3,0C16.1,64,16,64,15.8,64.3c-0.1,0.1-0.2,0.3-0.3,0.4 c-0.1,0.3-0.3,1-0.3,1.8c0,0.3,0,0.7,0,1c0,0.3,0,0.6,0,0.9c0,0.2,0,0.4,0,0.6c0,0.2-0.1,0.4,0,0.6c0,0.2,0.1,0.4-0.1,0.8 c-0.1,0.2-0.3,0.3-0.7,0.3c-0.3,0-0.6,0-0.8,0c-0.3,0-0.5,0-0.7,0c-0.4,0-0.4,0-0.6-0.2c-0.3-0.3-0.2-0.4-0.2-0.8V69 c0-0.3,0-0.6,0-0.9c0-0.8,0-1.6,0-2.4c0-0.5,0-1.1,0-1.6c0-0.2,0-0.4,0-0.6c0-0.3,0-0.5,0-0.8c0-0.2,0-0.4,0-0.6c0-0.2,0-0.5,0-0.7 c0-0.2,0-0.4,0-0.5c0-0.2,0-0.4,0-0.5c0-0.2,0-0.3,0-0.5c0-0.2,0-0.4,0-0.7c0-0.3,0-0.6,0-0.9c0-0.2,0-0.4,0-0.7c0-0.1,0-0.2,0-0.4 c0-0.2-0.1-0.8,0.6-0.9c0.2,0,0.4,0,0.7,0H14.3z"></path> <path class="st0" d="M27.1,60.3c0.2,0,0.4,0,0.6,0c0.4,0,1.1,0.2,1.5,0.3c0.2,0.1,0.4,0.2,0.5,0.3c0.3,0.1,0.5,0.2,0.9,0.5 c0.5,0.4,0.5,0.5,0.7,0.8c0.1,0.2,0.3,0.3,0.4,0.5c0.1,0.2,0.2,0.4,0.4,0.8c0.1,0.2,0.3,0.9,0.3,1.6c0,0.3,0,0.5-0.1,0.8 c0,0,0,0.5-0.1,0.8C32.2,67,32,67.3,32,67.4c-0.1,0.2-0.1,0.3-0.2,0.5c-0.2,0.4-0.4,0.6-0.7,1c-0.5,0.7-0.4,0.6-0.9,0.9 c-0.1,0.1-0.2,0.2-0.4,0.3c-0.2,0.1-0.2,0.1-0.4,0.2c-0.1,0-0.2,0.1-0.4,0.2c-0.1,0-0.5,0.2-0.8,0.2c-0.3,0.1-0.5,0-0.8,0.1 c-0.2,0-0.4,0-0.6,0c-0.3,0-0.4,0-0.9-0.1c-0.6-0.1-0.8-0.1-1.1-0.3c-0.3-0.1-1-0.5-1.2-0.7c-0.2-0.2-0.3-0.3-0.4-0.4 c-0.1-0.1-0.2-0.3-0.3-0.4c-0.1-0.1-0.2-0.2-0.2-0.2c-0.4-0.5-0.5-0.9-0.7-1.5c-0.1-0.3-0.2-0.5-0.2-0.9c0-0.3,0-0.2,0-0.7 c0-0.2,0-0.4,0-0.6c0-0.2,0.1-0.7,0.1-0.8c0-0.1,0.1-0.2,0.1-0.4c0.1-0.3,0.1-0.3,0.2-0.4c0.1-0.2,0.2-0.4,0.4-0.5 c0.2-0.2,0.4-0.6,0.6-0.7c0.1-0.1,0.1-0.1,0.2-0.2c0.1-0.1,0.4-0.4,0.4-0.4c0,0,0.1-0.1,0.3-0.2c0.3-0.2,0.3-0.2,0.6-0.3 c0.2-0.1,0.3-0.2,0.5-0.3c0.4-0.2,1-0.3,1.5-0.3H27.1z M25.8,63.9c-0.1,0.1-0.2,0.2-0.3,0.3c-0.1,0.2-0.6,0.6-0.6,1.3 c0,0.6,0.1,0.9,0.2,1.2c0.1,0.1,0.1,0.3,0.2,0.4c0.2,0.2,0.6,0.6,0.9,0.7c0.1,0,0.2,0.1,0.4,0.1c0.1,0,0.3,0,0.4,0 c0.2,0,0.2,0,0.4-0.1c0.4-0.1,0.6-0.2,0.9-0.5c0,0,0.3-0.2,0.4-0.3c0.1-0.2,0.1-0.2,0.2-0.4c0-0.1,0.1-0.2,0.1-0.3 c0.1-0.1,0.1-0.7,0.1-0.8c0-0.2-0.1-0.7-0.2-0.9c-0.1-0.1-0.1-0.2-0.3-0.4c-0.3-0.3-0.2-0.3-0.5-0.4c-0.4-0.2-0.3-0.1-0.7-0.2 c-0.1,0-0.3,0-0.4-0.1C26.7,63.4,26,63.7,25.8,63.9"></path> </svg> 