<?xml version="1.0" encoding="UTF-8"?> <svg xmlns="http://www.w3.org/2000/svg" id="Group_249" data-name="Group 249" width="112.345" height="21.192" viewBox="0 0 112.345 21.192"><path id="Path_167" data-name="Path 167" d="M97.766,4.341h0V.128H92.914V11.234a5.716,5.716,0,0,1-2.043,3.83,5.1,5.1,0,0,1-3.319,1.277H83.212a5.63,5.63,0,0,1-3.83-1.532A5.789,5.789,0,0,1,77.595,10.6V0H72.871V10.469a5.69,5.69,0,0,1-1.021,3.319,5.173,5.173,0,0,1-4.341,2.3H63.424a11.243,11.243,0,0,1-2.17-.255,5.5,5.5,0,0,1-3.064-2.553,6.065,6.065,0,0,1-.766-3.064V0H52.7V10.851a10.946,10.946,0,0,0,.638,3.447,10.48,10.48,0,0,0,4.6,5.362,9.684,9.684,0,0,0,3.83,1.277,27.815,27.815,0,0,0,3.447.128h.511a24.6,24.6,0,0,0,3.064-.128,10.035,10.035,0,0,0,6.511-3.7,10.026,10.026,0,0,0,7.532,3.7h5.107a6.216,6.216,0,0,0,1.532-.128,10.207,10.207,0,0,0,8.3-10.086Z" transform="translate(14.579)" fill="#686868"></path><path id="Path_168" data-name="Path 168" d="M58.776,10.213A10.346,10.346,0,0,0,48.308,0H33.243a11.243,11.243,0,0,0-2.17.255,9.946,9.946,0,0,0-6.766,5.107,10.439,10.439,0,0,0,.638,11.49,9.875,9.875,0,0,0,8.171,4.213H51.5V16.341H33.371a5.292,5.292,0,0,1-2.043-.383A5.668,5.668,0,0,1,27.882,12a5.886,5.886,0,0,1,.128-3.319,5.637,5.637,0,0,1,5.362-3.83H48.18a4.2,4.2,0,0,1,2.17.511A5.748,5.748,0,0,1,53.8,10.6v10.6h4.724l.128-1.149V17.235c.128-2.553.128-4.724.128-7.022Z" transform="translate(6.333)" fill="#686868"></path><path id="Path_169" data-name="Path 169" d="M10.213,0a7.081,7.081,0,0,0-2.17.383A9,9,0,0,0,2.681,3.575,9.289,9.289,0,0,0,0,10.086v9.83l.128,1.149h4.6v-10.6A6.1,6.1,0,0,1,6,6.894a5.643,5.643,0,0,1,4.341-2.043H28.214V0h-18Z" fill="#686868"></path></svg> 