<?xml version="1.0" encoding="UTF-8"?> <svg xmlns="http://www.w3.org/2000/svg" id="Group_3" data-name="Group 3" width="125.556" height="31.31" viewBox="0 0 125.556 31.31"><path id="Path_10" data-name="Path 10" d="M63.137,30.756v8.017c0,.363-.109.435-.472.435-1.415-.036-2.829,0-4.208,0-.29,0-.4-.073-.4-.4,0-5.478-.073-10.919.036-16.4a9.569,9.569,0,0,1,5.079-8.742,9.983,9.983,0,0,1,14.8,7.146,10.445,10.445,0,0,1-3.12,9.758,8.664,8.664,0,0,1-10.048,1.451A12.7,12.7,0,0,1,63.137,30.756Zm0-8.089A6.267,6.267,0,0,0,63.9,25.75a4.723,4.723,0,0,0,7.908.8,5.942,5.942,0,0,0,1.161-5.369,4.9,4.9,0,0,0-6.53-3.7A5.618,5.618,0,0,0,63.137,22.667Z" transform="translate(-36.977 -7.903)" fill="#686868"></path><path id="Path_11" data-name="Path 11" d="M158.191,30.553a11.77,11.77,0,0,1-1.378,1.125,8.7,8.7,0,0,1-10.23-.8,10.2,10.2,0,0,1-3.628-6.892,10.557,10.557,0,0,1,3.083-8.96,9.214,9.214,0,0,1,5.151-2.5,9.883,9.883,0,0,1,11.572,8.343,13.27,13.27,0,0,1,.145,2.394v8.815c0,.326-.073.435-.4.435-1.342-.036-2.648-.036-3.99,0-.326,0-.4-.073-.4-.4A9.988,9.988,0,0,0,158.191,30.553Zm-5.3-2.249a4.241,4.241,0,0,0,2.757-.871,5.986,5.986,0,0,0,.29-9.141,4.644,4.644,0,0,0-6.711.617,6,6,0,0,0-1.2,5.151A5.034,5.034,0,0,0,152.895,28.3Z" transform="translate(-91.039 -7.88)" fill="#686868"></path><path id="Path_12" data-name="Path 12" d="M210.511,25.951a5.706,5.706,0,0,1,.363.472,3.652,3.652,0,0,0,3.591,1.451,4.761,4.761,0,0,0,4.317-4.317,6.387,6.387,0,0,0-1.125-4.9,4.462,4.462,0,0,0-7.437.363,7.99,7.99,0,0,0-.979,3.954c-.073,4.933-.073,9.867-.036,14.837a3.943,3.943,0,0,1-.036.653c-.073.326-.218.653-.617.689a.719.719,0,0,1-.8-.58c-.145-.472-.254-.979-.363-1.451-.943-3.954-1.959-7.908-2.757-11.862a13.119,13.119,0,0,1,.907-8.053,8.111,8.111,0,0,1,6.384-4.68,11.709,11.709,0,0,1,5.26.181,8.5,8.5,0,0,1,5.877,5.586,11.429,11.429,0,0,1-1.233,10.629,8.111,8.111,0,0,1-7.763,3.664,6.041,6.041,0,0,1-3.229-.907.747.747,0,0,1-.363-.689C210.548,29.361,210.511,27.729,210.511,25.951Z" transform="translate(-130.228 -7.85)" fill="#686868"></path><path id="Path_13" data-name="Path 13" d="M-.01,22.584c.218-4.135,1.85-7.509,5.7-9.4a9.841,9.841,0,0,1,13.966,6.82,10.481,10.481,0,0,1-2.975,10.339,9.328,9.328,0,0,1-5.768,2.539,9.816,9.816,0,0,1-10.7-8.271A9.419,9.419,0,0,1-.01,22.584Zm14.873.29a6.482,6.482,0,0,0-1.451-4.389,4.538,4.538,0,0,0-6.856-.073,6.786,6.786,0,0,0-.689,7.473A4.573,4.573,0,0,0,12.8,27.3,5.474,5.474,0,0,0,14.863,22.874Z" transform="translate(0.016 -7.747)" fill="#686868"></path><path id="Path_14" data-name="Path 14" d="M311.245,21.744c-.109,3.954-1.669,7.11-5.187,9.033A9.777,9.777,0,0,1,291.765,24.5a10.657,10.657,0,0,1,3.845-11.318,9.78,9.78,0,0,1,14.873,4.571A10.831,10.831,0,0,1,311.245,21.744ZM306.13,21.6a6.067,6.067,0,0,0-1.27-3.773,4.431,4.431,0,0,0-6.82-.363A6.677,6.677,0,0,0,298,25.988a4.527,4.527,0,0,0,6.82-.254A6.21,6.21,0,0,0,306.13,21.6Z" transform="translate(-185.689 -7.234)" fill="#686868"></path><path id="Path_15" data-name="Path 15" d="M117.1,8.706V.435c0-.4.109-.435.472-.435h4.135c.326,0,.435.073.435.435-.036,1.378,0,2.793,0,4.172,0,.363.109.435.435.435.725-.036,1.487,0,2.213,0,.254,0,.4.036.4.363V9.214c0,.29-.109.326-.363.326h-2.322c-.254,0-.326.073-.326.326V16.8a5.027,5.027,0,0,0,.218,1.451,2.548,2.548,0,0,0,2.684,1.85,1.269,1.269,0,0,1,1.306.8,11.275,11.275,0,0,0,2.467,3.083c.145.109.363.254-.036.363a13.917,13.917,0,0,1-5.985.254,6.607,6.607,0,0,1-5.333-5.26,11.038,11.038,0,0,1-.326-2.866c-.073-2.612-.073-5.187-.073-7.763Z" transform="translate(-74.615 0)" fill="#686868"></path><path id="Path_16" data-name="Path 16" d="M275.7,12.988c-.29.254-.544.472-.8.689a9.356,9.356,0,0,0-2.285,3.047.382.382,0,0,1-.472.254,4.445,4.445,0,0,0-2.068.109,3.56,3.56,0,0,0-2.612,3.482c-.036,2.5,0,5.042,0,7.545v3.918c0,.254-.073.326-.327.326h-4.426c-.254,0-.326-.073-.326-.326,0-3.809-.036-7.618.036-11.427a8.556,8.556,0,0,1,2.177-5.8,7.944,7.944,0,0,1,5.333-2.5A14.34,14.34,0,0,1,275.7,12.988Z" transform="translate(-167.191 -7.801)" fill="#686868"></path></svg> 