<?xml version="1.0" encoding="UTF-8"?> <!-- Generator: Adobe Illustrator 24.0.1, SVG Export Plug-In . SVG Version: 6.00 Build 0) --> <svg xmlns="http://www.w3.org/2000/svg" xmlns:xlink="http://www.w3.org/1999/xlink" id="Layer_1" x="0px" y="0px" viewBox="0 0 75.3 75.2" style="enable-background:new 0 0 75.3 75.2;" xml:space="preserve"> <style type="text/css"> .st0{fill:#707070;} </style> <g> <path class="st0" d="M4.4,37.6c-1.4-1.4-2.7-2.7-4.1-4.1C0.2,33.4,0,33.1,0,32.9C0,22,0,11.2,0,0.4C0,0.3,0,0.2,0,0 c25.1,0,50.2,0,75.3,0c0,0.2,0,0.3,0,0.5c0,10.7,0,21.5,0,32.2c0,0.4-0.1,0.7-0.4,1c-1.2,1.1-2.3,2.3-3.4,3.4 c-0.2,0.2-0.4,0.3-0.6,0.5c1,1,1.8,1.8,2.7,2.7c0.3,0.3,0.5,0.6,0.8,0.8c0.8,0.6,1,1.4,1,2.4c0,10.4,0,20.8,0,31.2 c0,0.2,0,0.4,0,0.6c-25.1,0-50.2,0-75.3,0c0-0.2,0-0.3,0-0.5C0,64,0,53.2,0,42.4c0-0.3,0.1-0.5,0.3-0.8C1.7,40.3,3,39,4.4,37.6z M4.7,4.7c0,0.2,0,0.3,0,0.4c0,8.5,0,16.9,0,25.4c0,0.2,0.1,0.6,0.3,0.7c1.6,1.6,3.1,3.2,4.7,4.7c1.1,1.1,1.1,2.1,0,3.2 c-1.6,1.6-3.1,3.1-4.7,4.7c-0.2,0.2-0.3,0.5-0.3,0.8c0,8.4,0,16.8,0,25.3c0,0.2,0,0.3,0,0.5c22,0,43.9,0,65.9,0c0-0.2,0-0.4,0-0.6 c0-8.4,0-16.8,0-25.2c0-0.3-0.1-0.6-0.3-0.8c-1.6-1.6-3.1-3.1-4.7-4.7c-1-1.1-1.1-2.1,0-3.2c1.6-1.6,3.1-3.1,4.7-4.7 c0.3-0.3,0.4-0.5,0.4-0.9c0-8.4,0-16.8,0-25.2c0-0.2,0-0.3,0-0.5C48.6,4.7,26.7,4.7,4.7,4.7z"></path> <path class="st0" d="M52,53.1c0-0.2,0-0.3,0-0.5c0-3.5,0-7,0-10.4c0-1.2,0.2-1.4,1.4-1.4c0.8,0,1.7,0,2.5,0.1 c0.5,0,0.7,0.3,0.7,0.8c0,0.2,0,0.3,0,0.5c0,6.3,0,12.6,0,19c0,1-0.2,1.2-1.2,1.2c-0.8,0-1.5,0-2.3,0c-0.7,0-1.2-0.3-1.5-0.9 c-1.5-2.9-3-5.8-4.5-8.7c-0.5-0.9-1-1.8-1.5-2.7c0,0.2,0,0.3,0,0.5c0,3.5,0,6.9,0,10.4c0,0.2,0,0.4,0,0.6c0,0.6-0.2,0.8-0.8,0.8 c-1,0-2,0-3.1,0c-0.4,0-0.7-0.3-0.7-0.7c0-0.2,0-0.4,0-0.7c0-6.2,0-12.4,0-18.6c0-1.3,0.2-1.5,1.5-1.5c0.8,0,1.5,0,2.3,0.1 c0.5,0,0.9,0.3,1.1,0.8c1.2,2.2,2.3,4.4,3.5,6.7c0.8,1.5,1.6,3.1,2.4,4.6c0,0.1,0.1,0.1,0.1,0.2C51.9,53.2,52,53.1,52,53.1z"></path> <path class="st0" d="M18.8,23.6c0-3.1,0-6.2,0-9.4c0-0.1,0-0.3,0-0.4c0.1-0.7,0.3-1,1-1c2.6,0,5.2-0.1,7.8,0.1 c3.2,0.2,5.4,1.8,6.5,4.9c0.2,0.6,0.4,1.3,0.4,2c0,2.7,0.1,5.5-0.1,8.2c-0.2,2.6-1.5,4.7-4.1,5.8c-1,0.4-2.1,0.6-3.2,0.6 c-2.3,0-4.6,0-6.9,0c0,0-0.1,0-0.1,0c-1.1,0-1.3-0.2-1.3-1.3C18.8,29.9,18.8,26.8,18.8,23.6z M23.8,17.1c0,4.3,0,8.7,0,13 c1,0,2,0.1,3,0c1.1-0.1,2.1-0.5,2.4-1.7c0.1-0.4,0.2-0.8,0.3-1.2c0-2.2,0.1-4.5,0-6.7c0-0.5-0.1-1-0.3-1.5c-0.3-1.1-1-1.8-2.1-1.9 C26,17.1,24.9,17.1,23.8,17.1z"></path> <path class="st0" d="M48.8,29.8c-1.1,0-2.1,0-3.2,0c-0.3,0-0.4,0.1-0.5,0.4c-0.3,1.1-0.7,2.3-1,3.4c-0.1,0.5-0.4,0.7-0.9,0.7 c-1,0-2,0-3.1,0c-0.7,0-0.9-0.5-0.7-1.2c1.3-4,2.6-7.9,4-11.9c0.8-2.5,1.7-5.1,2.6-7.6c0.2-0.6,0.5-0.8,1.2-0.8c1.2,0,2.4,0,3.7,0 c0.8,0,1,0.2,1.3,0.9c0.4,1.3,0.9,2.6,1.3,3.9c0.9,2.6,1.8,5.3,2.6,7.9c0.9,2.6,1.7,5.2,2.5,7.8c0.2,0.5-0.1,1-0.6,1 c-1.2,0-2.3,0-3.5,0c-0.5,0-0.7-0.4-0.8-0.8c-0.3-1.1-0.7-2.1-1-3.2c-0.1-0.4-0.3-0.5-0.7-0.5C50.9,29.8,49.8,29.8,48.8,29.8z M51.3,26c-0.8-2.7-1.6-5.3-2.4-8c0,0-0.1,0-0.1,0c-0.8,2.6-1.6,5.3-2.4,8C48,26,49.6,26,51.3,26z"></path> <path class="st0" d="M28,45.3c-1.5,0-3,0-4.4,0c-1.2,0-2.3,0-3.5,0c-1,0-1.2-0.2-1.2-1.2c0-0.7,0-1.5,0-2.2c0-0.9,0.2-1.1,1.1-1.1 c0.8,0,1.7,0,2.5,0c3.4,0,6.8,0,10.2,0c1.3,0,1.5,0.2,1.5,1.5c0,0.4,0,0.7,0,1.1c0.1,1.1-0.3,1.9-0.9,2.7 c-2.7,3.8-5.4,7.6-8.1,11.4c-0.1,0.1-0.1,0.2-0.2,0.4c0.2,0,0.4,0,0.5,0c2.5,0,5.1,0,7.6,0c0.2,0,0.4,0,0.6,0 c0.6,0.1,0.8,0.2,0.8,0.9c0,0.9,0,1.8,0,2.8c0,0.6-0.2,0.8-0.8,0.8c-0.3,0-0.5,0-0.8,0c-4.2,0-8.4,0-12.7,0c-1.3,0-1.4-0.2-1.4-1.4 c0-0.6,0-1.1,0-1.7c0-0.6,0.2-1.1,0.5-1.6c2.8-4,5.6-7.9,8.4-11.9C27.8,45.6,27.9,45.5,28,45.3z"></path> </g> </svg> 