<?xml version="1.0" encoding="UTF-8"?> <!-- Generator: Adobe Illustrator 24.0.1, SVG Export Plug-In . SVG Version: 6.00 Build 0) --> <svg xmlns="http://www.w3.org/2000/svg" xmlns:xlink="http://www.w3.org/1999/xlink" id="Layer_1" x="0px" y="0px" viewBox="0 0 130.2 26.3" style="enable-background:new 0 0 130.2 26.3;" xml:space="preserve"> <style type="text/css"> .st0{fill:#707070;} </style> <g> <polygon class="st0" points="0,26 5.1,26 5.1,8.8 6.9,26.1 11.5,26.1 13.3,8.9 13.4,26.1 18.1,26.1 18.1,0.1 11.1,0.1 9.2,16.4 9.2,16.4 7.6,0.1 0,0.1 "></polygon> <path class="st0" d="M28.3,24.4c-1.3,1.3-3.2,1.9-4.6,1.9c-4.4,0-5.3-4.3-5.3-7.1c0-3.4,1.4-5.8,3.4-7.4c-1-1.6-1.8-3.5-1.8-5.6 C20,2.4,22.2,0,25,0c3.2,0,5.5,1.7,5.5,6c0,3.2-1.5,4.9-3.1,6.7l1.8,3.5c0.3-0.9,0.6-1.8,0.6-2.8h4.3c-0.1,2.9-1,6-2.4,7.6l2.6,5.1 l-5.3,0L28.3,24.4z M25.2,4.2c-0.8,0-1.2,0.4-1.2,1.3c0,0.6,0.2,1.2,0.4,1.7l0.7,1.4c0.3-0.3,1.4-1.7,1.4-3 C26.5,4.5,25.9,4.2,25.2,4.2 M24.1,16.2c-0.4,0.2-1.3,1.3-1.3,2.7c0,1.2,0.7,2.2,1.6,2.2c0.8,0,1.5-0.4,1.9-0.8L24.1,16.2z"></path> <path class="st0" d="M55.3,7.7l4.6,0c0-4.2-0.8-7.5-5.8-7.5c-1.9,0-3.2,0.7-4,1.6c-1.2,1.2-1.9,2-1.9,5.7c0,3.9,2.4,6.6,5,8.6 c0.7,0.5,2,1.3,2.3,3.2c0.2,1.1-0.4,2.2-1.4,2.2c-0.9,0-1.2-1-1.2-2.2v-1.2l-4.7,0v0.7c0,5.5,1.8,7.5,5.6,7.5 c4.6,0,6.7-1.7,6.8-7.5c0.1-7.2-7.2-6.9-7.6-12.2c-0.1-1,0.4-1.7,1.1-1.7c0.8,0,1.2,0.8,1.2,1.8V7.7z"></path> <path class="st0" d="M41.7,9.7h4.9V7.8c0-3.9-0.7-7.6-6-7.6c-6.4,0-6.4,5-6.4,12.8c0,8.1-0.1,13.3,6.3,13.3c4.4,0,6.2-3.5,6.2-9.5 v-1.6h-4.9v2c0,3.2-0.3,4.3-1.1,4.3c-1.2,0-1.4-1.1-1.4-8.5c0-7.2,0-8.3,1.4-8.3c1,0,1,1.8,1,2.9V9.7z"></path> <polygon class="st0" points="85.7,6.3 89.1,6.3 89.1,26 94.1,26 94.1,6.3 97.5,6.3 97.5,0.2 85.7,0.2 "></polygon> <path class="st0" d="M104.7,9.7h4.9V7.8c0-3.9-0.6-7.8-5.9-7.8c-6.4,0-6.5,5.1-6.5,12.9c0,8.1-0.2,13.3,6.2,13.3 c4.4,0,6.3-3.5,6.3-9.4v-1.6h-4.9v2c0,3.2-0.3,4.3-1.1,4.3c-1.2,0-1.4-1.1-1.4-8.5c0-7.2,0-8.3,1.4-8.3c1,0,1,1.8,1,2.9V9.7z"></path> <polygon class="st0" points="118,9.5 115.6,9.5 115.6,0.2 110.5,0.2 110.5,26 115.6,26 115.6,15.4 118,15.4 118,26 123,26 123,0.2 118,0.2 "></polygon> <rect x="124.7" y="0.2" class="st0" width="5.5" height="25.8"></rect> <path class="st0" d="M82.2,21.8h-3.4l-0.5,4.3h-5.2l4.6-25.9h5.9l4.5,25.9h-5.2L82.2,21.8z M80.6,5.9L80.6,5.9l-1.2,10.4h2.3 L80.6,5.9z"></path> <path class="st0" d="M68.3,21.8h-3.4l-0.5,4.3h-5.2l4.6-25.9h5.9l4.5,25.9h-5.2L68.3,21.8z M66.7,5.9L66.7,5.9l-1.2,10.4h2.3 L66.7,5.9z"></path> </g> </svg> 