<?xml version="1.0" encoding="UTF-8"?> <!-- Generator: Adobe Illustrator 24.0.1, SVG Export Plug-In . SVG Version: 6.00 Build 0) --> <svg xmlns="http://www.w3.org/2000/svg" xmlns:xlink="http://www.w3.org/1999/xlink" id="Layer_1" x="0px" y="0px" viewBox="0 0 169.7 28" style="enable-background:new 0 0 169.7 28;" xml:space="preserve"> <style type="text/css"> .st0{fill:#707070;} .st1{fill-rule:evenodd;clip-rule:evenodd;fill:#707070;} </style> <path class="st0" d="M78.7,5h-5.9v2.2H75v2.3c-0.3,0.1-0.8,0.2-1.3,0.2c-2.8,0-4.7-1.4-4.7-3.6c0-2.7,2.5-3.7,5.6-3.7 c0.9,0,2.3,0.2,3.5,0.7l0.3-2.5C76.9,0.1,74.9,0,74,0c-5.2,0-9,1.7-9,6c0,4.4,4.4,5.9,8.2,5.9c1.3,0,3.1,0,5.5-0.5V5z"></path> <path class="st1" d="M81.1,11.8h3.8V7.2h0.8c1.4,0,1.9,0.5,2.7,2.5l0.8,2.1h4l-1.4-3.1c-0.7-1.4-0.8-2.3-2-2.6v0 c1.8-0.3,2.7-1.4,2.7-2.9c0-2-2.1-2.9-4.6-2.9h-6.8V11.8z M84.9,2.4h1c1.4,0,2.8,0.2,2.8,1.3C88.7,5,87.1,5,85.9,5h-1V2.4z"></path> <path class="st1" d="M93.5,11.8h3.9l1.1-2.5h5.3l1.1,2.5h4.2l-5.5-11.6h-4.6L93.5,11.8z M102.9,7.1h-3.6l1.8-4.5h0L102.9,7.1z"></path> <polygon class="st0" points="111.4,11.8 115.2,11.8 115.2,2.5 118.7,2.5 118.7,0.2 107.9,0.2 107.9,2.5 111.4,2.5 "></polygon> <polygon class="st0" points="122.5,11.8 126.3,11.8 126.3,2.5 129.8,2.5 129.8,0.2 119,0.2 119,2.5 122.5,2.5 "></polygon> <polygon class="st0" points="131.1,11.8 141.4,11.8 141.4,9.6 134.9,9.6 134.9,7 140.8,7 140.8,4.8 134.9,4.8 134.9,2.4 141.1,2.4 141.1,0.2 131.1,0.2 "></polygon> <path class="st1" d="M65.4,27.7h6c2.5,0,5.5-0.6,5.5-3.3c0-1.4-1-2.2-2.9-2.6v0c1.6-0.4,2.5-1.2,2.5-2.7c0-2-2-2.9-4.6-2.9h-6.5 V27.7z M69.2,22.8h1.2c1.3,0,2.8,0.1,2.8,1.4c0,1.2-1.4,1.3-2.8,1.3h-1.1V22.8z M69.2,18.3h1.1c1.3,0,2.5,0.1,2.5,1.2 c0,1-1.3,1.2-2.5,1.2h-1.1V18.3z"></path> <path class="st1" d="M78.8,27.7h3.8v-4.6h0.8c1.4,0,1.9,0.5,2.7,2.5l0.8,2.1h4l-1.4-3.1c-0.7-1.4-0.8-2.3-2-2.6v0 c1.8-0.3,2.7-1.4,2.7-2.9c0-2-2.1-2.9-4.6-2.9h-6.8V27.7z M82.6,18.3h1c1.4,0,2.8,0.2,2.8,1.3c0,1.3-1.6,1.3-2.8,1.3h-1V18.3z"></path> <path class="st1" d="M91.9,21.9c0,3.7,2.5,6,7.1,6c4.6,0,7.1-2.3,7.1-6c0-3.7-2.4-6-7.1-6C94.3,15.9,91.9,18.2,91.9,21.9 M95.8,21.9 c0-2,0.9-3.7,3.2-3.7c2.3,0,3.2,1.7,3.2,3.7c0,1.9-0.9,3.7-3.2,3.7C96.7,25.6,95.8,23.8,95.8,21.9"></path> <polygon class="st0" points="110.5,27.7 114.3,27.7 114.3,18.4 117.8,18.4 117.8,16.1 107,16.1 107,18.4 110.5,18.4 "></polygon> <polygon class="st0" points="119.2,27.7 123,27.7 123,22.8 127.5,22.8 127.5,27.7 131.3,27.7 131.3,16.1 127.5,16.1 127.5,20.6 123,20.6 123,16.1 119.2,16.1 "></polygon> <polygon class="st0" points="133.7,27.7 144,27.7 144,25.5 137.5,25.5 137.5,22.9 143.4,22.9 143.4,20.7 137.5,20.7 137.5,18.3 143.7,18.3 143.7,16.1 133.7,16.1 "></polygon> <path class="st1" d="M146,27.7h3.8v-4.6h0.8c1.4,0,1.9,0.5,2.7,2.5l0.8,2.1h4l-1.4-3.1c-0.7-1.4-0.8-2.3-2-2.6v0 c1.8-0.3,2.7-1.4,2.7-2.9c0-2-2.1-2.9-4.6-2.9H146V27.7z M149.8,18.3h1c1.4,0,2.8,0.2,2.8,1.3c0,1.3-1.5,1.3-2.8,1.3h-1V18.3z"></path> <path class="st0" d="M159.2,27.4c1.3,0.3,2.9,0.5,4.2,0.5c3.2,0,6.3-0.8,6.3-3.8c0-4.2-6.7-2.9-6.7-4.8c0-1,1.6-1.1,2.5-1.1 c1.1,0,2.2,0.2,3.2,0.5l0.2-2.4c-1-0.3-2.3-0.4-3.7-0.4c-2.9,0-6.2,0.8-6.2,3.5c0,4.2,6.7,2.8,6.7,5c0,0.9-1.1,1.1-2.3,1.1 c-1.6,0-2.9-0.3-3.9-0.8L159.2,27.4z"></path> <path class="st0" d="M16,11.8v5.1h5.1v5.3c0,0-1.9,0.5-3.1,0.5c-4.8-0.1-8.9-2.6-9-8.4c-0.1-8,6.4-8.6,11-8.7l20.5,0 c0,0,6.1,0.2,6.2,2.9c0.1,2.7-6.1,3.3-6.1,3.3h-7.1v5.1l7.1,0c0,0,7.6-0.8,7.9,2.5c0.2,3.3-7.9,3.1-7.9,3.1h-7.1l0,5.1l13.1,0 C51,27,56.8,27,57.4,19.7c0.4-5.3-6.7-5.9-6.7-5.9s4.6-1.2,4.8-6.3c0.2-5.9-7.8-6.7-13.4-7l-23.3,0C6.9,0.6,0,5.1,0,14.2 C0,23,6.7,27.5,17.9,28c4.6,0.2,11.8-1.3,11.8-1.3V11.8H16z"></path> </svg> 