<?xml version="1.0" encoding="UTF-8"?> <!-- Generator: Adobe Illustrator 24.0.1, SVG Export Plug-In . SVG Version: 6.00 Build 0) --> <svg xmlns="http://www.w3.org/2000/svg" xmlns:xlink="http://www.w3.org/1999/xlink" id="Layer_1" x="0px" y="0px" viewBox="0 0 137.8 28.6" style="enable-background:new 0 0 137.8 28.6;" xml:space="preserve"> <style type="text/css"> .st0{fill:#707070;} </style> <polygon class="st0" points="9.5,0 9.5,9.5 0,9.5 0,19.1 9.5,19.1 9.5,28.6 19.1,28.6 19.1,19.1 28.7,19.1 28.7,9.5 19.1,9.5 19.1,0 "></polygon> <path class="st0" d="M133.2,16.9c0,0.8,0.7,1.2,1.4,1.2c0.6,0,1.3-0.2,1.3-0.9c0-0.6-0.8-0.8-2.2-1.1c-1.1-0.2-2.2-0.6-2.2-1.9 c0-1.8,1.5-2.2,3-2.2c1.5,0,2.9,0.5,3.1,2.2h-1.8c0-0.7-0.6-0.9-1.3-0.9c-0.4,0-1,0.1-1,0.6c0,0.7,1.1,0.8,2.1,1 c1.1,0.2,2.2,0.6,2.2,1.9c0,1.9-1.6,2.4-3.2,2.4c-1.6,0-3.1-0.6-3.2-2.5L133.2,16.9z"></path> <path class="st0" d="M126.2,16.9c0,0.8,0.7,1.2,1.5,1.2c0.6,0,1.3-0.2,1.3-0.9c0-0.6-0.8-0.8-2.2-1.1c-1.1-0.2-2.2-0.6-2.2-1.9 c0-1.8,1.5-2.2,3-2.2c1.5,0,2.9,0.5,3.1,2.2h-1.8c0-0.7-0.6-0.9-1.3-0.9c-0.4,0-1.1,0.1-1.1,0.6c0,0.7,1.1,0.8,2.2,1 c1.1,0.2,2.2,0.6,2.2,1.9c0,1.9-1.6,2.4-3.1,2.4c-1.6,0-3.1-0.6-3.2-2.5L126.2,16.9z"></path> <path class="st0" d="M123.7,15.6c0.1-2-1.5-3.6-3.5-3.7c-2-0.1-3.6,1.5-3.7,3.5c0,0.1,0,0.1,0,0.2h0c-0.2,1.9,1.2,3.5,3.1,3.7 c0.2,0,0.3,0,0.5,0c1.9,0.1,3.5-1.3,3.6-3.2C123.7,16,123.7,15.8,123.7,15.6z M120.1,17.9c-1.3,0-1.7-1.2-1.7-2.2l0,0 c0-1.1,0.4-2.2,1.7-2.2c1.3,0,1.7,1.1,1.7,2.2C121.8,16.8,121.4,17.9,120.1,17.9z"></path> <path class="st0" d="M111.9,12.2h1.8v1.3h0c0.4-0.9,1.3-1.5,2.2-1.5c0.1,0,0.3,0,0.4,0v1.8c-0.2,0-0.5-0.1-0.7,0 c-1.4,0-1.9,1-1.9,2.2v3.1h-1.9L111.9,12.2L111.9,12.2z"></path> <path class="st0" d="M108.9,12.7c-0.2-1-1.1-1.7-2.1-1.7c-1.9,0-2.6,1.6-2.6,3.3c0,1.6,0.7,3.2,2.6,3.2c1.2,0,2.2-0.9,2.2-2.1 c0,0,0,0,0,0h2c-0.1,2.2-1.9,4-4.2,3.9c0,0,0,0-0.1,0c-3,0-4.7-2.2-4.7-5c0-2.8,1.7-5,4.7-5c2.1,0,3.9,1.2,4.1,3.4L108.9,12.7z"></path> <path class="st0" d="M98.7,9.5V13h0c-0.5-0.7-1.2-1-2-1c-2,0-3.1,1.7-3.1,3.6c0,1.9,1,3.7,3.1,3.7c0.8,0.1,1.6-0.3,2.1-1.1h0v0.9 l0,0h1.8V9.5H98.7z M98.8,15.6C98.8,15.6,98.8,15.6,98.8,15.6c0,1.1-0.4,2.2-1.6,2.2c-1.2,0-1.7-1.2-1.7-2.2c0-1.2,0.4-2.2,1.7-2.2 C98.4,13.4,98.8,14.5,98.8,15.6C98.8,15.6,98.8,15.6,98.8,15.6L98.8,15.6z"></path> <path class="st0" d="M89.6,17.9c-1.1,0-1.6-0.6-1.7-1.8l5,0c0.1-2.1-1-4.1-3.4-4.1c-1.9,0-3.5,1.5-3.5,3.4c0,0.1,0,0.2,0,0.2 c-0.1,1.9,1.2,3.5,3.1,3.6c0.1,0,0.3,0,0.4,0c1.5,0.1,2.9-0.9,3.2-2.4h-1.7C90.9,17.5,90.3,17.9,89.6,17.9z M89.4,13.4 C89.5,13.4,89.5,13.4,89.4,13.4c1,0,1.4,0.5,1.6,1.5h-3.1C87.9,14.1,88.6,13.4,89.4,13.4z"></path> <path class="st0" d="M85.3,16.9c0-1-0.4-1.9-1.4-2.2v0c1-0.4,1.6-1.4,1.5-2.4c0-1.4-1.1-2.6-2.6-2.6c-0.1,0-0.1,0-0.2,0h-5.1l0,9.6 h2.1v-3.7h2.1c1.1,0,1.4,0.5,1.6,1.4c0,0.8,0.1,1.6,0.3,2.3h2.1C85.4,18.4,85.3,17.6,85.3,16.9z M81.9,13.9h-2.3v-2.7h2.3 c0.9,0,1.4,0.4,1.4,1.3C83.3,13.5,82.8,13.9,81.9,13.9z"></path> <path class="st0" d="M68.9,9.5h1.9v3.6h0c0.4-0.7,1.2-1.2,2-1.2c2,0,2.5,1.2,2.5,2.9v4.3h-1.9v-3.9c0-1.2-0.3-1.7-1.2-1.7 c-1,0-1.5,0.6-1.5,2v3.7h-1.9L68.9,9.5L68.9,9.5z"></path> <path class="st0" d="M63.5,16.9c0,0.8,0.7,1.2,1.5,1.2c0.6,0,1.3-0.2,1.3-0.9c0-0.6-0.8-0.8-2.1-1.1c-1.1-0.2-2.2-0.6-2.2-1.9 c0-1.8,1.5-2.2,3-2.2c1.5,0,2.9,0.5,3.1,2.2h-1.8c0-0.7-0.6-0.9-1.3-0.9c-0.4,0-1.1,0.1-1.1,0.6c0,0.7,1.1,0.8,2.2,1 c1.1,0.2,2.2,0.6,2.2,1.9c0,1.9-1.6,2.4-3.1,2.4c-1.6,0-3.2-0.6-3.3-2.5L63.5,16.9z"></path> <rect x="59" y="9.5" class="st0" width="1.9" height="1.6"></rect> <rect x="59" y="12.2" class="st0" width="1.9" height="6.9"></rect> <path class="st0" d="M56.3,12.2h1.4v1.3h-1.4v3.4c0,0.6,0.2,0.8,0.8,0.8c0.2,0,0.4,0,0.6,0v1.5c-0.4,0-0.7,0.1-1.1,0 c-1.2,0-2.2-0.3-2.2-1.7v-4.1h-1.2v-1.3h1.2v-2.1h1.9L56.3,12.2L56.3,12.2z"></path> <rect x="50.3" y="9.5" class="st0" width="1.9" height="1.6"></rect> <rect x="50.3" y="12.2" class="st0" width="1.9" height="6.9"></rect> <path class="st0" d="M45,12.2h1.8v1.3h0C47.2,12.6,48,12,49,12c0.1,0,0.3,0,0.4,0v1.8c-0.2,0-0.5-0.1-0.7,0c-1.4,0-1.9,1-1.9,2.2 v3.1H45V12.2z"></path> <path class="st0" d="M42.4,13.9c0.8-0.3,1.3-1.1,1.3-2c0-1.8-1.2-2.4-3.1-2.4h-4.5v9.5h4.6c1.7,0,3.4-0.8,3.4-2.8 C44.2,15.2,43.5,14.2,42.4,13.9z M38.2,11.2L38.2,11.2l2,0c0.7,0,1.4,0.2,1.4,1.1c0,0.8-0.6,1.2-1.3,1.2h-2.1V11.2z M40.4,17.5h-2.2 v-2.6h2.3c0.9,0,1.5,0.4,1.5,1.3C42,17.1,41.3,17.5,40.4,17.5z"></path> </svg> 