<?xml version="1.0" encoding="UTF-8"?> <!-- Generator: Adobe Illustrator 24.0.1, SVG Export Plug-In . SVG Version: 6.00 Build 0) --> <svg xmlns="http://www.w3.org/2000/svg" xmlns:xlink="http://www.w3.org/1999/xlink" id="Layer_1" x="0px" y="0px" viewBox="0 0 136.6 33.9" style="enable-background:new 0 0 136.6 33.9;" xml:space="preserve"> <style type="text/css"> .st0{fill-rule:evenodd;clip-rule:evenodd;fill:#707070;} </style> <g id="Group_248" transform="translate(-0.1)"> <path id="Path_165" class="st0" d="M101.3,27c-0.5-0.5-1.2-0.9-2-0.9c-0.8,0-1.4,0.4-1.4,1c0,1.7,3.7,1.7,3.7,4.3 c0,1.3-1,2.3-2.3,2.4c-0.1,0-0.1,0-0.2,0c-0.9,0-1.7-0.3-2.4-0.8v-1.6c0.5,0.7,1.4,1.2,2.3,1.2c0.7,0.1,1.3-0.4,1.4-1 c0,0,0-0.1,0-0.1c0-1.8-3.7-2-3.7-4.3c0-1.3,1.1-2.4,2.4-2.4c0.1,0,0.2,0,0.2,0c0.7,0,1.4,0.2,1.9,0.6 M91.5,25.1h1.2v8.7h-1.2 V25.1z M83,30.2h2.7L84.3,27L83,30.2z M88.6,33.8h-1.3l-1.1-2.5h-3.6l-1.1,2.5h-1.3l3.7-8.7h0.9L88.6,33.8z M77.1,33.8h-1l-5.8-6.7 v6.7h-1.1v-8.7h1l5.8,6.7v-6.7H77L77.1,33.8L77.1,33.8z M60.4,30.2h2.7L61.7,27L60.4,30.2z M66.1,33.8h-1.3l-1.1-2.5H60l-1.1,2.5 h-1.3l3.7-8.7h0.9L66.1,33.8z M50.5,32.7h1.6c1.5,0,1.8-0.7,1.8-1.4c0-0.8-0.6-1.3-1.9-1.3h-1.5V32.7z M50.5,28.9h0.8 c1.2,0,1.8-0.4,1.8-1.4c0-0.6-0.3-1.2-1.5-1.2h-1.1V28.9z M49.3,25.1h2.5c1.8,0,2.7,1.1,2.7,2.2c0,0.8-0.5,1.6-1.3,1.8l0,0 c1.2,0.1,2.1,1.1,2.1,2.3c0,1-0.8,2.3-3,2.3h-3L49.3,25.1L49.3,25.1z M43.7,25.1h1.2v8.7h-1.2V25.1z M36.4,32.7h3.9v1.1h-5.1v-8.7 h1.2V32.7z"></path> <path id="Path_166" class="st0" d="M131.7,5.3c0-1.2-0.8-1.7-2.3-1.7h-1.3v4.3h1.3c1.4,0,2.3-0.5,2.3-2.1 M132.1,18.7l-2.8-7.4 h-1.1v7.4H124V0.3h5.6c2.9,0,6.3,0.9,6.3,5.1v0.3c0.1,2-0.9,3.8-2.6,4.8l3.4,8.2L132.1,18.7z M108.3,18.7v-3.3h3V3.7h-3V0.3h10.2 v3.3h-3v11.7h3v3.3L108.3,18.7z M98.9,6.1c0-2.2-0.7-2.6-1.9-2.6c-1.2,0-1.9,0.3-1.9,2.6v6.7c0,2.2,0.7,2.6,1.9,2.6 c1.2,0,1.9-0.3,1.9-2.6V6.1z M97,19c-3.4,0-6.1-1.5-6.1-6.1V6.1C90.9,1.5,93.5,0,97,0c3.4,0,6.1,1.5,6.1,6.1v6.7 C103,17.5,100.4,19,97,19 M82.6,3.7v15h-4.2v-15h-3.9V0.3h11.9v3.3H82.6z M66.1,6.1c0-2.2-0.8-2.5-2.1-2.5h-1.4v5.8h1.3 c1.3,0,2.2-0.7,2.2-2.8L66.1,6.1z M64.2,12.8h-1.6v5.9h-4.2V0.3h5.7c3.4,0,6.2,1.3,6.2,5.8v0.5C70.3,11.4,67.4,12.8,64.2,12.8 M47.8,18.7V8.6l-2.8,10h-2.9l-2.6-9.8v9.8H36V0.3h4.5l3.4,11.9l3.5-11.9h4.4v18.3H47.8z M25.4,6.1c0-2.2-0.7-2.6-1.9-2.6 s-1.9,0.3-1.9,2.6v6.7c0,2.2,0.7,2.6,1.9,2.6s1.9-0.3,1.9-2.6V6.1z M23.5,19c-3.4,0-6.1-1.5-6.1-6.1V6.1C17.4,1.5,20,0,23.5,0 c3.4,0,6.1,1.5,6.1,6.1v6.7C29.7,17.5,27,19,23.5,19 M8,5.9V5.3c0-1.2-0.3-1.8-1.9-1.8C4.7,3.5,4.3,4,4.3,6.2v6.2 c0,2.2,1.1,2.8,2.5,2.8c1.6,0,3.1-0.4,4.5-1.1l0.3,3.6c-1.5,1-3.3,1.5-5.1,1.4c-3.8,0-6.3-1.5-6.3-6.4V6.1c0-4.6,2.5-6.1,6-6.1h0.4 c3.3,0,5.4,1.7,5.4,4.5v1.4L8,5.9L8,5.9z"></path> </g> </svg> 