<?xml version="1.0" encoding="UTF-8"?> <!-- Generator: Adobe Illustrator 24.0.1, SVG Export Plug-In . SVG Version: 6.00 Build 0) --> <svg xmlns="http://www.w3.org/2000/svg" xmlns:xlink="http://www.w3.org/1999/xlink" id="Layer_1" x="0px" y="0px" viewBox="0 0 80.5 75.8" style="enable-background:new 0 0 80.5 75.8;" xml:space="preserve"> <style type="text/css"> .st0{fill:#707070;} </style> <path class="st0" d="M76.4,6.2c0-1-0.3-1.4-0.8-1.4h-1.5V32h1.5c0.4,0,0.8-0.4,0.8-1.4V6.2z M75.7,36.3H70V0.4h5.8 c2.1,0,4.7,1.1,4.7,5.6v24.6C80.5,35.2,77.8,36.3,75.7,36.3 M64.5,36.3l-4.3-19.6v19.6h-3.5V0.4H61l3.6,19.9V0.4H68v35.8H64.5z M49.8,10.9l-1.1,14.3h1.8L49.8,10.9z M51.1,36.3l-0.3-6.5h-2.5L48,36.3h-3.7l2.9-35.8h5.3l3,35.8H51.1z M34.8,36.3V0.4h4.2V32h4.5 v4.3H34.8z M24.8,36.3V0.4H29V32h4.5v4.3H24.8z M18.7,5.8c0-0.8-0.4-1.3-1.1-1.3c-0.7,0-1.1,0.5-1.1,1.3v25.1c0,0.8,0.4,1.3,1.1,1.3 c0.7,0,1.1-0.5,1.1-1.3V5.8z M14.9,35.9c-1.5-1-2.6-2.9-2.6-5.3V6.1c0-3.6,2.4-6.1,5.3-6.1C20.6,0,23,2.5,23,6.1v24.5 c0,3.6-2.4,6.1-5.3,6.1C16.7,36.7,15.7,36.4,14.9,35.9 M6.4,36.3V20.9H4.2v15.4H0V0.4h4.2v15.9h2.2V0.4h4.2v35.8H6.4z"></path> <path class="st0" d="M52.4,75.3l-4.3-19.6v19.6h-3.5V39.5h4.3l3.6,19.9V39.5h3.4v35.8H52.4z M34.4,75.3V39.5h8.7v4.3h-4.5v10.9h3V59 h-3v12h4.5v4.3H34.4z M24.2,75.3V39.5h8.7v4.3h-4.5v10.9h3V59h-3v12h4.5v4.3H24.2z M18.2,45.2c0-1-0.3-1.4-0.8-1.4h-1.1v12h1.1 c0.5,0,0.8-0.4,0.8-1.4V45.2z M18.8,75.3c-0.3-1.6-0.5-3.7-0.5-5.6v-8.4c0-0.8-0.3-1.4-0.9-1.4h-1v15.4h-4.2V39.5h5.4 c2.1,0,4.7,1.1,4.7,5.6v9.1c0,1.7-0.8,2.8-1.9,3.7c1.1,0.9,2,2,2,3.7v7.6c0,2.3,0.3,4.3,0.6,6H18.8z M7.9,75.3l-0.4-0.8 c-0.6,0.8-1.7,1.3-2.9,1.3c-2.8,0-4.7-2.1-4.7-6.1V45.2C0,41.5,2.2,39,5.1,39c2.9,0,5.1,2.5,5.1,6.1v7.4H6.2v-7.7 c0-0.8-0.4-1.3-1.1-1.3c-0.7,0-1.1,0.5-1.1,1.3v25.5c0,0.8,0.4,1.3,1.1,1.3c0.7,0,1.2-0.5,1.2-1.3v-8.7h-1v-3.8h5.1v17.5H7.9z"></path> </svg> 