<?xml version="1.0" encoding="UTF-8"?> <!-- Generator: Adobe Illustrator 24.0.1, SVG Export Plug-In . SVG Version: 6.00 Build 0) --> <svg xmlns="http://www.w3.org/2000/svg" xmlns:xlink="http://www.w3.org/1999/xlink" id="Layer_1" x="0px" y="0px" viewBox="0 0 84.1 31.4" style="enable-background:new 0 0 84.1 31.4;" xml:space="preserve"> <style type="text/css"> .st0{fill:#707070;} </style> <g> <path class="st0" d="M2,31.4c-0.6,0-1.1-0.2-1.5-0.6C0.2,30.4,0,29.9,0,29.3V14c0-2.7,0.9-4.9,2.7-6.7c1.8-1.8,4-2.7,6.7-2.7 c2.7,0,4.9,0.9,6.7,2.7c1.8,1.8,2.7,4,2.7,6.7c0,2.6-0.9,4.9-2.7,6.7c-1.8,1.8-4,2.7-6.7,2.7c-0.6,0-1.1-0.2-1.5-0.6 c-0.4-0.4-0.6-0.9-0.6-1.5c0-0.6,0.2-1.1,0.6-1.5c0.4-0.4,0.9-0.6,1.5-0.6c1.5,0,2.7-0.5,3.7-1.6c1-1,1.6-2.3,1.6-3.7 c0-1.5-0.5-2.7-1.6-3.7c-1-1-2.3-1.5-3.7-1.5c-1.5,0-2.7,0.5-3.7,1.5c-1,1-1.5,2.3-1.5,3.7v15.3c0,0.6-0.2,1.1-0.6,1.5 C3.2,31.2,2.7,31.4,2,31.4z"></path> <path class="st0" d="M22.8,23.5c-0.6,0-1.1-0.1-1.5-0.5c-0.4-0.4-0.6-0.8-0.6-1.5l-0.2-8.9c-0.1-2.2,0.6-4.1,2.1-5.6 c1.5-1.6,3.3-2.3,5.5-2.4c0.6,0,1.1,0.2,1.5,0.5C30,5.5,30.2,6,30.2,6.6c0,1.3-0.6,2-2.1,2.1c-1,0.1-1.9,0.5-2.5,1.2 c-0.7,0.7-1,1.6-1,2.6l0.2,8.9c0,0.6-0.2,1.1-0.5,1.5C23.9,23.2,23.5,23.4,22.8,23.5z"></path> <path class="st0" d="M39,23.5c-2.7,0-4.9-0.9-6.7-2.7c-1.8-1.8-2.7-4.1-2.7-6.7c0-2.7,0.9-4.9,2.7-6.7c1.8-1.8,4-2.7,6.7-2.7 c2.7,0,4.9,0.9,6.8,2.9c0.4,0.4,0.6,0.9,0.6,1.4c0,0.7-0.3,1.2-0.9,1.7l0,0l-5,4.9C40,16,39.5,16.2,39,16.2c-0.6,0-1.1-0.2-1.5-0.6 c-0.4-0.4-0.6-0.9-0.6-1.5c0-0.5,0.2-1,0.7-1.4L41.2,9l-1.1-0.2c-0.4-0.1-0.7-0.1-1.1-0.1c-1.5,0-2.7,0.5-3.7,1.5 c-1,1-1.5,2.3-1.5,3.7c0,1.5,0.5,2.7,1.5,3.7c1,1,2.3,1.6,3.7,1.6h3.5c0.6,0,1.1,0.2,1.5,0.6c0.4,0.4,0.6,0.9,0.6,1.5 c0,0.6-0.2,1.1-0.6,1.5c-0.4,0.4-0.9,0.6-1.5,0.6H39z"></path> <path class="st0" d="M56,23.4c-2.3,0-4.1-0.7-5.6-2.3c-1.5-1.5-2.3-3.4-2.3-5.6V2.1c0-0.6,0.2-1.1,0.6-1.5C49.1,0.2,49.5,0,50.2,0 c0.6,0,1.1,0.2,1.5,0.6c0.4,0.4,0.6,0.9,0.6,1.5v2.6h9.5c0.6,0,1.1,0.2,1.5,0.6c0.4,0.4,0.6,0.9,0.6,1.5c0,1.5-0.6,2.1-2,2.1h-9.5 v6.7c0,1,0.4,1.9,1.1,2.7c0.7,0.7,1.6,1.1,2.6,1.1c1,0,1.9-0.4,2.6-1.1c0.7-0.7,1.1-1.6,1.1-2.6v-0.4c0-0.6,0.2-1.1,0.6-1.5 c0.4-0.4,0.9-0.6,1.5-0.6c0.6,0,1.1,0.2,1.5,0.6c0.4,0.4,0.6,0.9,0.6,1.5v0.4c0,2.2-0.7,4.1-2.3,5.6C60,22.6,58.2,23.4,56,23.4z"></path> <path class="st0" d="M74.7,23.4c-2.7,0-4.8-0.9-6.7-2.7c-1.8-1.8-2.7-4-2.7-6.7c0-2.7,0.9-4.8,2.7-6.7c1.8-1.8,4-2.7,6.7-2.7 s4.9,0.9,6.7,2.7c1.8,1.8,2.7,4,2.7,6.7c0,2.6-0.9,4.9-2.7,6.7C79.6,22.5,77.4,23.4,74.7,23.4z M74.7,8.8c-1.4,0-2.7,0.5-3.7,1.5 c-1,1-1.5,2.3-1.5,3.7c0,1.4,0.5,2.7,1.5,3.7c1,1,2.3,1.5,3.7,1.5c1.4,0,2.7-0.5,3.7-1.5c1-1,1.5-2.3,1.5-3.7 c0-1.4-0.5-2.7-1.5-3.7C77.4,9.3,76.2,8.8,74.7,8.8z"></path> </g> </svg> 