<?xml version="1.0" encoding="UTF-8"?> <svg xmlns="http://www.w3.org/2000/svg" width="377.196" height="370.549" viewBox="0 0 377.196 370.549"><path id="Union_5" data-name="Union 5" d="M326.745,369.549l-36.361-42.44v42.44H256.591V230.286h33.792v39.775l27.665-39.775h42.29l-52.368,68.694,65.114,70.569Zm-218.749,0L77.959,323.061H75v46.487H41.2V230.286h57.6a54.344,54.344,0,0,1,21.244,3.948,39.5,39.5,0,0,1,15.068,10.61,47.131,47.131,0,0,1,8.6,14.8,50.42,50.42,0,0,1,2.915,17.124,48.459,48.459,0,0,1-8.6,28.228q-8.6,12.436-24.8,16.482l33.99,48.066Zm-33-75.6H97.227q7.708,0,11.462-5.033a21.382,21.382,0,0,0,.049-24.132q-3.705-4.984-11.511-4.984H75ZM277.341,137.235a71.049,71.049,0,0,1-22.677-15.259,72.243,72.243,0,0,1-15.118-22.815,71.1,71.1,0,0,1,0-55.468,72.127,72.127,0,0,1,15.118-22.784A71.062,71.062,0,0,1,277.341,5.671a70.965,70.965,0,0,1,63.384,3.9,70.1,70.1,0,0,1,25.816,26.039A70.847,70.847,0,0,1,376,71.507a71.245,71.245,0,0,1-35.275,61.778,70.693,70.693,0,0,1-63.384,3.951Zm1.482-92.293A36.443,36.443,0,0,0,268.1,71.507a36.41,36.41,0,0,0,10.671,26.465,35.236,35.236,0,0,0,26.184,10.892,35.882,35.882,0,0,0,26.382-10.892,36.066,36.066,0,0,0,10.869-26.465,36.228,36.228,0,0,0-10.869-26.515,35.8,35.8,0,0,0-26.382-10.941A35.285,35.285,0,0,0,278.823,44.942ZM107.8,141.138,90.211,73.432l-17,67.706H46.934L0,1.876H36.559L60.668,81.13,76.477,21.911h28.16L120.15,81.13,144.457,1.876h36.855L133.884,141.138Z" transform="translate(0.696 0.5)" fill="#f74ea1" stroke="rgba(0,0,0,0)" stroke-width="1"></path></svg> 